<svg width="64" height="64" viewBox="0 0 64 64" fill="none" xmlns="http://www.w3.org/2000/svg">
<g clip-path="url(#clip0_58_1766)">
<path fill-rule="evenodd" clip-rule="evenodd" d="M20.2752 17.854C20.5544 17.854 20.7937 18.0813 20.7937 18.3755C20.7937 18.6697 20.5677 18.897 20.2752 18.897H16.3399C15.981 18.897 15.6486 19.0441 15.4226 19.2848C15.1833 19.5255 15.037 19.8464 15.037 20.2074V42.6455C15.037 43.0065 15.1833 43.3408 15.4226 43.5681C15.6619 43.8088 15.981 43.9559 16.3399 43.9559H48.6734C49.0323 43.9559 49.3647 43.8088 49.5907 43.5681C49.83 43.3274 49.9763 43.0065 49.9763 42.6455V20.1941C49.9763 19.833 49.83 19.4987 49.5907 19.2714C49.3514 19.0307 49.0323 18.8836 48.6734 18.8836H44.7248C44.4456 18.8836 44.2063 18.6563 44.2063 18.3621C44.2063 18.0679 44.4323 17.8406 44.7248 17.8406H48.6734C49.3115 17.8406 49.8965 18.1081 50.322 18.536C50.7474 18.9639 51.0133 19.5522 51.0133 20.1941V42.6321C51.0133 43.2739 50.7474 43.8623 50.322 44.2902C49.8965 44.7181 49.3115 44.9855 48.6734 44.9855H34.7003V46.7239H38.7952C39.2472 46.7239 39.6461 46.9111 39.9519 47.2053C40.2443 47.4995 40.4305 47.914 40.4305 48.3686V49.4919C40.4305 49.7727 40.2045 50.0134 39.912 50.0134H25.1146C24.8354 50.0134 24.5961 49.786 24.5961 49.4919V48.3686C24.5961 47.914 24.7822 47.5128 25.0747 47.2053C25.3672 46.9111 25.7794 46.7239 26.2314 46.7239H30.3396V44.9855H16.3399C15.7018 44.9855 15.1168 44.7181 14.6913 44.2902C14.2659 43.8623 14 43.2739 14 42.6321V20.1941C14 19.5522 14.2659 18.9639 14.6913 18.536C15.1168 18.1081 15.7018 17.8406 16.3399 17.8406H20.2885L20.2752 17.854ZM34.1685 47.7535H26.2181C26.0586 47.7535 25.899 47.8204 25.7927 47.9274C25.6863 48.0343 25.6198 48.1814 25.6198 48.3553V48.957H39.3935V48.3553C39.3935 48.1948 39.327 48.0343 39.2206 47.9274C39.1143 47.8204 38.968 47.7535 38.7952 47.7535H34.1818H34.1685ZM33.65 44.9855H31.3367V46.7239H33.65V44.9855ZM43.0762 20.2208C41.8663 18.4424 40.4571 17.0517 38.9281 16.0354C38.5027 15.7546 38.0507 15.4872 37.6119 15.2732C38.8351 16.5569 39.5796 18.2953 39.5796 20.2074C39.5796 22.1196 38.7819 23.9516 37.5056 25.2486C37.479 25.2754 37.4524 25.3021 37.4125 25.3289C37.7582 25.1684 38.1038 25.008 38.4495 24.8074C40.2709 23.7911 41.8796 22.2533 43.0762 20.2208ZM27.3881 15.2732C26.936 15.5005 26.4973 15.7546 26.0719 16.0354C24.5429 17.0517 23.1337 18.4424 21.9238 20.2208C23.1071 22.2533 24.7291 23.7911 26.5505 24.8074C26.8829 24.9946 27.2285 25.1684 27.5875 25.3289C27.5609 25.3021 27.521 25.2754 27.4944 25.2486C26.2181 23.9649 25.4204 22.1731 25.4204 20.2074C25.4204 18.2418 26.1649 16.5569 27.3881 15.2732ZM39.4998 15.1796C37.3194 13.7221 34.8997 13 32.4934 13C30.087 13 27.6806 13.7221 25.4869 15.1796C23.7718 16.3162 22.203 17.8941 20.8735 19.9133C20.7539 20.0871 20.7672 20.301 20.8735 20.4749C22.1764 22.815 23.9845 24.5533 26.0453 25.7033C28.0395 26.8265 30.2731 27.3748 32.4934 27.3748C34.7136 27.3748 36.9472 26.8132 38.9414 25.7033C41.0022 24.5399 42.8236 22.7882 44.1265 20.4481C44.2195 20.2743 44.2063 20.0737 44.0999 19.9133C42.7704 17.8941 41.2016 16.3162 39.4865 15.1796H39.4998ZM36.7876 15.8883C35.6974 14.7918 34.1818 14.1099 32.5066 14.1099C30.8315 14.1099 29.3158 14.7918 28.2257 15.8883C27.1355 16.9848 26.4574 18.5092 26.4574 20.1941C26.4574 21.8789 27.1355 23.4033 28.2257 24.4998C29.3158 25.5963 30.8315 26.2783 32.5066 26.2783C34.1818 26.2783 35.6974 25.5963 36.7876 24.4998C37.8778 23.4033 38.5559 21.8789 38.5559 20.1941C38.5559 18.5092 37.8778 16.9848 36.7876 15.8883ZM34.5275 19.5923L34.7934 19.7528C34.8732 19.7929 34.9396 19.8598 34.9795 19.94C35.1258 20.1807 35.0327 20.5016 34.7934 20.6487L34.5142 20.8092L34.2749 20.9429C34.1951 21.0098 34.0888 21.0365 33.9824 21.0365C33.8096 21.0365 33.65 20.9429 33.557 20.8092C33.5038 20.9028 33.4373 20.9964 33.3575 21.0766C33.1315 21.3039 32.8257 21.4377 32.4801 21.4377C32.1344 21.4377 31.8286 21.3039 31.6026 21.0766C31.3766 20.8493 31.2436 20.5417 31.2436 20.1941C31.2436 19.8464 31.3766 19.5389 31.6026 19.3115C31.7089 19.2046 31.8286 19.1243 31.9616 19.0575V18.3488C31.7754 18.2685 31.6425 18.0813 31.6425 17.8674C31.6425 17.7604 31.6691 17.6668 31.7355 17.5732L32.0413 17.0517C32.0413 17.0517 32.1211 16.9447 32.161 16.9046C32.0413 16.811 31.9616 16.6639 31.9616 16.5034V15.7145C30.9245 15.8348 29.9939 16.3029 29.3026 17.0116C28.5979 17.7203 28.1326 18.6429 28.0129 19.6859H28.7973C29.0765 19.6859 29.3158 19.9133 29.3158 20.2074C29.3158 20.5016 29.0898 20.7289 28.7973 20.7289H28.0129C28.1326 21.772 28.5979 22.708 29.3026 23.4033C30.0072 24.112 30.9245 24.5801 31.9616 24.7004V23.9115C31.9616 23.6306 32.1876 23.39 32.4801 23.39C32.7725 23.39 32.9986 23.6173 32.9986 23.9115V24.7004C34.0356 24.5801 34.9662 24.112 35.6576 23.4033C36.3622 22.6946 36.8275 21.772 36.9472 20.7289H36.1628C35.8836 20.7289 35.6443 20.5016 35.6443 20.2074C35.6443 19.9133 35.8703 19.6859 36.1628 19.6859H36.9472C36.8275 18.6429 36.3622 17.7069 35.6576 17.0116C34.9529 16.3029 34.0356 15.8348 32.9986 15.7145V16.5034C32.9986 16.6639 32.9188 16.811 32.7991 16.9046C32.8656 16.9581 32.9055 17.0116 32.9454 17.0784L33.0916 17.3325L33.2512 17.6133C33.3974 17.854 33.3043 18.1749 33.065 18.322C33.0384 18.322 33.0252 18.3488 32.9986 18.3488V19.0708C33.1315 19.1377 33.2512 19.2179 33.3575 19.3249C33.4373 19.4051 33.5038 19.4987 33.557 19.5923C33.7032 19.3784 33.9957 19.2982 34.235 19.4319L34.4876 19.579C34.4876 19.579 34.5142 19.579 34.5142 19.5923H34.5275ZM32.6529 20.047C32.6529 20.047 32.5598 19.9935 32.5066 19.9935C32.4535 19.9935 32.4003 20.0202 32.3604 20.0604C32.3604 20.0604 32.2939 20.154 32.2939 20.2074C32.2939 20.2609 32.3205 20.3144 32.3471 20.3545C32.3471 20.3545 32.4402 20.4214 32.4934 20.4214C32.5465 20.4214 32.5997 20.3947 32.6396 20.3679C32.6396 20.3679 32.6928 20.2743 32.6928 20.2208C32.6928 20.1673 32.6662 20.1138 32.6396 20.0737L32.6529 20.047ZM32.4934 14.6447C30.9644 14.6447 29.595 15.2732 28.5846 16.2761C27.5875 17.279 26.9626 18.6697 26.9626 20.2074C26.9626 21.7452 27.5875 23.1225 28.5846 24.1388C29.5817 25.155 30.9644 25.7701 32.4934 25.7701C34.0223 25.7701 35.3917 25.1417 36.4021 24.1388C37.4125 23.1359 38.0241 21.7452 38.0241 20.2074C38.0241 18.6697 37.3992 17.2924 36.4021 16.2761C35.405 15.2732 34.0223 14.6447 32.4934 14.6447ZM26.7499 29.3137C26.3909 28.9527 26.0054 28.6852 25.58 28.498C25.3008 28.3777 24.995 28.2974 24.6892 28.2439V31.3061H27.7337C27.6806 30.9852 27.6008 30.691 27.4944 30.4102C27.3216 29.9957 27.0823 29.6346 26.7632 29.3137H26.7499ZM25.9788 27.5486C25.4337 27.3079 24.8221 27.1876 24.184 27.1742C23.9048 27.1742 23.6655 27.3881 23.6655 27.6823V31.8276C23.6655 32.1084 23.8915 32.3491 24.184 32.3491H28.3054C28.5846 32.3491 28.8239 32.1218 28.8239 31.8276C28.8239 31.8009 28.8239 31.7875 28.8239 31.7607C28.7973 31.1189 28.6777 30.5439 28.465 30.0224C28.2522 29.4742 27.9332 29.0061 27.5077 28.5916C27.0557 28.137 26.5505 27.7893 26.0054 27.5486H25.9788ZM22.3626 32.9776V29.5678C21.5782 29.6747 20.8735 30.0492 20.3284 30.5974C19.677 31.2526 19.2781 32.1619 19.2781 33.1648C19.2781 33.7264 19.4111 34.2747 19.6371 34.7427C19.7966 35.077 20.0093 35.3845 20.2752 35.6653L22.3626 32.991V32.9776ZM23.3996 29.0195C23.3996 28.7387 23.1736 28.498 22.8811 28.498C21.6047 28.498 20.4481 29.0195 19.6105 29.8619C18.7729 30.7044 18.2544 31.8677 18.2544 33.1514C18.2544 33.8735 18.4272 34.5688 18.7197 35.184C19.0255 35.8258 19.4775 36.3741 20.0226 36.8153C20.0359 36.8153 20.0492 36.8421 20.0758 36.8554C20.7937 37.3636 21.525 37.6711 22.2961 37.7781C23.0805 37.8851 23.8782 37.7781 24.7025 37.4438C24.7025 37.4438 24.7291 37.4438 24.7291 37.4304C25.6065 37.0159 26.2713 36.4409 26.7366 35.7322C27.1886 35.0369 27.4412 34.1944 27.4944 33.2317C27.4944 33.2049 27.4944 33.1915 27.4944 33.1648C27.4944 32.884 27.2684 32.6433 26.9759 32.6433H23.373V29.0195H23.3996ZM22.429 36.7485C23.0273 36.8287 23.6655 36.7485 24.3169 36.481C25.0083 36.1467 25.5268 35.7055 25.8857 35.1572C26.1649 34.7293 26.3511 34.2345 26.4308 33.6729H23.1337L21.0862 36.2804C21.525 36.5345 21.9637 36.6816 22.429 36.7485ZM44.8444 28.3242C44.3126 28.3242 43.8473 28.5381 43.5016 28.8858C43.1559 29.2335 42.9432 29.7149 42.9432 30.2364C42.9432 30.6241 43.0496 30.9718 43.249 31.266L40.3906 34.502C40.138 34.3816 39.8588 34.3148 39.553 34.3148C39.0345 34.3148 38.5692 34.5287 38.2235 34.863L36.0963 33.6328C36.1362 33.4857 36.1628 33.3253 36.1628 33.1514C36.1628 32.6166 35.9501 32.1485 35.6044 31.8009C35.2587 31.4532 34.7801 31.2392 34.2616 31.2392C33.7431 31.2392 33.2645 31.4532 32.9188 31.8009C32.5731 32.1485 32.3604 32.6299 32.3604 33.1514C32.3604 33.5125 32.4668 33.8468 32.6396 34.1409L29.8609 37.1229C29.595 36.9892 29.3026 36.9089 28.9835 36.9089C28.465 36.9089 27.9863 37.1229 27.6407 37.4705C27.295 37.8182 27.0823 38.2996 27.0823 38.8211C27.0823 39.3426 27.295 39.824 27.6407 40.1717C27.9863 40.5193 28.465 40.7333 28.9835 40.7333C29.502 40.7333 29.9806 40.5193 30.3263 40.1717C30.6719 39.824 30.8847 39.3426 30.8847 38.8211C30.8847 38.4601 30.7783 38.1258 30.6055 37.8316L33.3841 34.8497C33.65 34.9834 33.9425 35.0636 34.2616 35.0636C34.7801 35.0636 35.2454 34.8497 35.5911 34.5154L37.7183 35.7456C37.6784 35.8927 37.6518 36.0531 37.6518 36.227C37.6518 36.7618 37.8645 37.2299 38.2102 37.5775C38.5559 37.9252 39.0345 38.1391 39.553 38.1391C40.0715 38.1391 40.5501 37.9252 40.8958 37.5775C41.2415 37.2299 41.4542 36.7485 41.4542 36.227C41.4542 35.8392 41.3478 35.4915 41.1484 35.1973L44.0068 31.9613C44.2594 32.0817 44.5386 32.1485 44.8444 32.1485C45.3762 32.1485 45.8415 31.9346 46.1872 31.5869C46.5329 31.2392 46.7456 30.7579 46.7456 30.2364C46.7456 29.7149 46.5329 29.2335 46.1872 28.8858C45.8415 28.5381 45.3629 28.3242 44.8444 28.3242ZM45.456 29.6213C45.2964 29.4608 45.0837 29.3672 44.8311 29.3672C44.5785 29.3672 44.3658 29.4608 44.2063 29.6213C44.0467 29.7817 43.9536 29.9957 43.9536 30.2497C43.9536 30.5038 44.0467 30.7177 44.2063 30.8782C44.3658 31.0387 44.5785 31.1323 44.8311 31.1323C45.0837 31.1323 45.2964 31.0387 45.456 30.8782C45.6155 30.7177 45.7086 30.5038 45.7086 30.2497C45.7086 29.9957 45.6155 29.7817 45.456 29.6213ZM40.1646 35.6119C40.005 35.4514 39.7923 35.3578 39.5397 35.3578C39.2871 35.3578 39.0744 35.4514 38.9148 35.6119C38.7553 35.7723 38.6622 35.9863 38.6622 36.2403C38.6622 36.4944 38.7553 36.7083 38.9148 36.8688C39.0744 37.0293 39.2871 37.1229 39.5397 37.1229C39.7923 37.1229 40.005 37.0293 40.1646 36.8688C40.3241 36.7083 40.4172 36.4944 40.4172 36.2403C40.4172 35.9863 40.3241 35.7723 40.1646 35.6119ZM34.8732 32.5363C34.7136 32.3759 34.5009 32.2823 34.2483 32.2823C33.9957 32.2823 33.783 32.3759 33.6234 32.5363C33.4639 32.6968 33.3708 32.9107 33.3708 33.1648C33.3708 33.4189 33.4639 33.6328 33.6234 33.7933C33.783 33.9537 33.9957 34.0473 34.2483 34.0473C34.5009 34.0473 34.7136 33.9537 34.8732 33.7933C35.0327 33.6328 35.1258 33.4189 35.1258 33.1648C35.1258 32.9241 35.0194 32.6968 34.8732 32.5363ZM29.5685 38.1926C29.4089 38.0322 29.1962 37.9386 28.9436 37.9386C28.691 37.9386 28.4783 38.0322 28.3187 38.1926C28.1592 38.3531 28.0661 38.567 28.0661 38.8211C28.0661 39.0752 28.1592 39.2891 28.3187 39.4496C28.4783 39.61 28.691 39.7036 28.9436 39.7036C29.1962 39.7036 29.4089 39.61 29.5685 39.4496C29.728 39.2891 29.8211 39.0752 29.8211 38.8211C29.8211 38.5804 29.7147 38.3531 29.5685 38.1926ZM45.8415 20.7156H48.1416V42.124H16.8451V20.7156H19.1452C19.4244 20.7156 19.6637 20.4883 19.6637 20.1941C19.6637 19.8999 19.4377 19.6726 19.1452 19.6726H16.3399C16.0607 19.6726 15.8214 19.8999 15.8214 20.1941V42.6321C15.8214 42.9129 16.0474 43.1536 16.3399 43.1536H48.6601C48.9393 43.1536 49.1786 42.9263 49.1786 42.6321V20.2074C49.1786 19.9266 48.9526 19.6859 48.6601 19.6859H45.8415C45.5623 19.6859 45.323 19.9133 45.323 20.2074C45.323 20.4883 45.549 20.7289 45.8415 20.7289V20.7156Z" fill="white"/>
</g>
<defs>
<clipPath id="clip0_58_1766">
<rect width="37" height="37" fill="white" transform="translate(14 13)"/>
</clipPath>
</defs>
</svg>
