<svg width="64" height="64" viewBox="0 0 64 64" fill="none" xmlns="http://www.w3.org/2000/svg">
<g clip-path="url(#clip0_58_1796)">
<path fill-rule="evenodd" clip-rule="evenodd" d="M54.6795 18.4899C55.0007 19.0896 55.081 19.7541 54.9204 20.37C54.7598 20.9859 54.3583 21.5531 53.7479 21.9097C53.1537 22.2663 52.463 22.3311 51.8527 22.169C51.403 22.0394 50.9854 21.7962 50.6481 21.4397L44.0468 25.2808C44.8338 27.0475 45.2354 28.9599 45.2354 30.8724C45.2354 33.3035 44.5929 35.7347 43.308 37.8902L51.6921 46.3505C52.3185 46.9826 52.6397 47.8254 52.6397 48.6682C52.6397 49.511 52.3185 50.3538 51.6921 50.9859C51.0657 51.618 50.2305 51.9421 49.3953 51.9421C48.5601 51.9421 47.7249 51.618 47.0985 50.9859L38.7144 42.5256C36.5782 43.8222 34.169 44.4705 31.7598 44.4705C31.5349 44.4705 31.294 44.4705 31.0692 44.4543L28.9972 52.2663C29.4309 52.4932 29.7682 52.8335 30.0091 53.2387C30.3303 53.7898 30.4267 54.4543 30.2661 55.1188C30.2661 55.135 30.2661 55.1674 30.25 55.1836C30.0734 55.8481 29.6397 56.3667 29.0936 56.6747C28.5475 56.9988 27.889 57.0961 27.2305 56.934C27.2144 56.934 27.1823 56.934 27.1662 56.9178C26.5077 56.7395 25.9937 56.3019 25.6886 55.7509C25.3673 55.1998 25.2549 54.5029 25.4316 53.8384C25.6083 53.1739 26.0419 52.6228 26.6041 52.2987C27.0056 52.0556 27.4875 51.9421 27.9693 51.9583L29.993 44.3408C27.1662 43.968 24.4197 42.6714 22.2354 40.4834C20.822 39.0572 19.778 37.3878 19.1355 35.605L14.028 36.9826C14.044 37.4689 13.9316 37.9551 13.6907 38.3603C13.3694 38.9113 12.8394 39.3489 12.1648 39.5434C11.5063 39.7217 10.8317 39.6082 10.2696 39.2841C9.70743 38.9599 9.27377 38.4251 9.0971 37.7444C8.92042 37.0799 9.03285 36.3992 9.35408 35.8319C9.67531 35.2646 10.2053 34.827 10.8799 34.6488C11.5384 34.4705 12.213 34.5839 12.7752 34.9081C13.1767 35.1512 13.5301 35.4915 13.7389 35.9291L18.7982 34.5677C18.4609 33.3522 18.2843 32.1204 18.2843 30.8724C18.2843 27.3878 19.6013 23.9194 22.2354 21.2614C23.0063 20.4834 23.8576 19.8189 24.757 19.2679L20.565 11.9583C20.0992 12.1042 19.6173 12.1204 19.1676 11.9907C18.5573 11.8287 17.9951 11.4235 17.6418 10.8076C17.6418 10.8076 17.6418 10.7914 17.6257 10.7752C17.3045 10.1755 17.2242 9.51099 17.3848 8.89511C17.5454 8.27923 17.947 7.71197 18.5573 7.3554C19.1355 6.99884 19.8261 6.9178 20.4365 7.07988C21.0468 7.24195 21.609 7.64714 21.9623 8.26302C22.2996 8.86269 22.3799 9.55962 22.2193 10.1755C22.0908 10.6293 21.8499 11.0507 21.4965 11.3911L25.6886 18.7168C27.5999 17.7444 29.6718 17.2582 31.7598 17.2582C35.213 17.2582 38.6502 18.5872 41.2843 21.2452C42.1998 22.169 42.9546 23.2063 43.565 24.2922L50.118 20.4834C49.9735 20.0134 49.9574 19.5272 50.0859 19.0734C50.2465 18.4575 50.6481 17.8902 51.2584 17.5337C51.8527 17.1933 52.5433 17.1123 53.1537 17.2744C53.764 17.4364 54.3262 17.8416 54.6795 18.4575C54.6795 18.4575 54.6795 18.4737 54.6795 18.4899ZM26.6041 55.1998C26.7808 55.524 27.0859 55.7671 27.4714 55.8643C27.8569 55.9616 28.2423 55.8967 28.5475 55.7184C28.8687 55.5402 29.1097 55.2322 29.206 54.8432C29.3024 54.4543 29.2382 54.0653 29.0615 53.7411C28.8848 53.417 28.5796 53.1739 28.1942 53.0766C27.8087 52.9794 27.4232 53.0442 27.118 53.2225C26.7968 53.4008 26.5559 53.7087 26.4595 54.0977C26.3471 54.4867 26.4113 54.8757 26.6041 55.1836V55.1998ZM10.2696 36.3667C10.0929 36.6909 10.0287 37.0799 10.125 37.4526C10.2214 37.8416 10.4784 38.1496 10.7836 38.3278C11.1048 38.5061 11.4903 38.571 11.8597 38.4737C12.2451 38.3765 12.5342 38.1172 12.727 37.8092C12.9037 37.4851 12.9679 37.0961 12.8715 36.7233C12.7752 36.3343 12.5182 36.0264 12.213 35.8481C11.8918 35.6698 11.5063 35.605 11.1369 35.7022C10.7514 35.7995 10.4623 36.0426 10.2696 36.3667ZM41.6537 40.0783L45.1229 43.5791C45.3317 43.7898 45.3317 44.1301 45.1229 44.3408C44.9141 44.5515 44.5768 44.5515 44.368 44.3408L40.8988 40.84C40.4972 41.2128 40.0636 41.5693 39.6299 41.8935L44.6572 46.9664L47.7249 43.8708L42.6977 38.7979C42.3764 39.2355 42.0391 39.6731 41.6537 40.0783ZM50.3911 46.5774L47.3234 49.6731L47.8534 50.2079C48.271 50.6293 48.8331 50.84 49.3792 50.84C49.9253 50.84 50.4875 50.6293 50.9051 50.2079C51.3227 49.7865 51.5315 49.2193 51.5315 48.6682C51.5315 48.1172 51.3227 47.5499 50.9051 47.1285L50.375 46.5937L50.3911 46.5774ZM46.5685 48.8951L49.6362 45.7995L48.4958 44.6488L45.4281 47.7444L46.5685 48.8951ZM26.7005 31.2452L29.7521 35.2646C29.9288 35.5078 30.2661 35.5402 30.507 35.3619C30.5552 35.3295 30.5873 35.2971 30.6194 35.2484L36.8031 27.0961C36.9798 26.853 36.9316 26.5126 36.7067 26.3343C36.4658 26.156 36.1285 26.2047 35.9519 26.4316L30.1858 34.0329L27.5678 30.5807C27.3911 30.3376 27.0538 30.3052 26.8129 30.4834C26.572 30.6617 26.5238 31.0021 26.7165 31.2452H26.7005ZM24.0503 23.0928C21.9302 25.2322 20.8701 28.0523 20.8701 30.8562C20.8701 33.6601 21.9302 36.4802 24.0503 38.6196C26.1704 40.759 28.9651 41.8287 31.7437 41.8287C34.5224 41.8287 37.3171 40.759 39.4372 38.6196C41.5573 36.4802 42.6174 33.6601 42.6174 30.8562C42.6174 28.0523 41.5573 25.2322 39.4372 23.0928C37.3171 20.9535 34.5224 19.8838 31.7437 19.8838C28.9651 19.8838 26.1704 20.9535 24.0503 23.0928ZM31.7437 20.9535C29.2382 20.9535 26.7165 21.9259 24.8052 23.8546C22.8939 25.7833 21.9302 28.3116 21.9302 30.8562C21.9302 33.4008 22.8939 35.9291 24.8052 37.8578C26.7165 39.7865 29.2221 40.759 31.7437 40.759C34.2654 40.759 36.771 39.7865 38.6823 37.8578C40.5936 35.9291 41.5573 33.4008 41.5573 30.8562C41.5573 28.3116 40.5936 25.7833 38.6823 23.8546C36.771 21.9259 34.2654 20.9535 31.7437 20.9535ZM22.9742 22.0069C20.5489 24.4543 19.3443 27.6471 19.3443 30.8562C19.3443 34.0653 20.5489 37.2582 22.9742 39.7055C25.3995 42.1528 28.5636 43.3684 31.7437 43.3684C34.9239 43.3684 38.088 42.1528 40.5133 39.7055C42.9386 37.2582 44.1432 34.0653 44.1432 30.8562C44.1432 27.6471 42.9386 24.4543 40.5133 22.0069C38.088 19.5596 34.9239 18.3441 31.7437 18.3441C28.5796 18.3441 25.3995 19.5596 22.9742 22.0069ZM20.4847 10.7752C20.4847 10.7752 20.4847 10.7752 20.5007 10.7752C20.838 10.5807 21.0629 10.2565 21.1593 9.89997C21.2556 9.54341 21.2074 9.15443 21.0147 8.81407C20.822 8.47372 20.5007 8.24681 20.1474 8.14957C19.794 8.05232 19.4086 8.10094 19.0713 8.29543C18.734 8.48992 18.5091 8.81407 18.4127 9.17064C18.3164 9.51099 18.3485 9.89997 18.5412 10.2403C18.734 10.6131 19.0552 10.84 19.4086 10.9372C19.7458 11.0345 20.1313 11.0021 20.4686 10.8076L20.4847 10.7752ZM53.8604 20.0783C53.9567 19.7379 53.9246 19.3489 53.7319 19.0086C53.5391 18.6358 53.2179 18.4089 52.8646 18.3116C52.5112 18.2144 52.1257 18.263 51.7884 18.4575C51.4511 18.652 51.2263 18.9761 51.1299 19.3327C51.0336 19.6731 51.0657 20.0458 51.2424 20.3862C51.2424 20.4024 51.2745 20.4348 51.2745 20.451C51.4672 20.7752 51.7884 21.0021 52.1257 21.0993C52.463 21.1966 52.8485 21.1642 53.1858 20.9697C53.2018 20.9697 53.2179 20.9535 53.234 20.9373C53.5552 20.7428 53.7801 20.4186 53.8764 20.0783H53.8604Z" fill="white"/>
</g>
<defs>
<clipPath id="clip0_58_1796">
<rect width="46" height="50" fill="white" transform="translate(9 7)"/>
</clipPath>
</defs>
</svg>
