<svg width="64" height="64" viewBox="0 0 64 64" fill="none" xmlns="http://www.w3.org/2000/svg">
<g clip-path="url(#clip0_58_1774)">
<path d="M23.0049 34.9951C23.0049 33.1703 21.9004 31.5297 20.2269 30.8433C18.5534 30.1402 16.6122 30.5252 15.3236 31.8143C14.035 33.1034 13.6501 35.0453 14.353 36.7194C15.0558 38.4103 16.6958 39.4985 18.5032 39.4985C20.98 39.4985 23.0049 37.4895 23.0049 34.9951ZM15.5077 34.9951C15.5077 33.7897 16.244 32.6848 17.3652 32.2161C18.4865 31.7473 19.775 32.0152 20.6285 32.869C21.482 33.7228 21.7498 35.0118 21.2812 36.1335C20.8126 37.2551 19.7248 37.9918 18.5032 37.9918C16.8464 37.9918 15.5077 36.6525 15.5077 34.9951Z" fill="white"/>
<path d="M25.2475 41.0078H11.7592C10.5041 41.0078 9.5 42.0123 9.5 43.2511V53.7478C9.5 53.9487 9.58367 54.1328 9.71755 54.2835C9.85143 54.4342 10.0522 54.5011 10.2531 54.5011H26.7536C26.9544 54.5011 27.1385 54.4174 27.2891 54.2835C27.4398 54.1496 27.5067 53.9487 27.5067 53.7478V43.2511C27.5067 42.0123 26.5026 41.0078 25.2642 41.0078H25.2475ZM26.0006 53.0112H23.005V45.5112H21.4989V53.0112H15.4911V45.5112H13.9849V53.0112H11.0061V43.2511C11.0061 42.8326 11.3408 42.4978 11.7592 42.4978H25.2642C25.465 42.4978 25.6491 42.5815 25.7997 42.7154C25.9504 42.8493 26.0173 43.0502 26.0173 43.2511V53.0112H26.0006Z" fill="white"/>
<path d="M49.999 34.9951C49.999 33.1703 48.8945 31.5297 47.221 30.8433C45.5475 30.1402 43.6063 30.5252 42.3177 31.8143C41.0291 33.1034 40.6442 35.0453 41.3471 36.7194C42.05 38.4103 43.69 39.4985 45.4973 39.4985C47.9741 39.4985 49.999 37.4895 49.999 34.9951ZM42.5018 34.9951C42.5018 33.7897 43.2381 32.6848 44.3594 32.2161C45.4806 31.7473 46.7692 32.0152 47.6227 32.869C48.4761 33.7228 48.7439 35.0118 48.2753 36.1335C47.8067 37.2551 46.719 37.9918 45.4973 37.9918C43.8406 37.9918 42.5018 36.6525 42.5018 34.9951Z" fill="white"/>
<path d="M52.2573 41.0078H38.7522C37.5139 41.0078 36.5098 42.0123 36.5098 43.2511V53.7478C36.5098 53.9487 36.5934 54.1328 36.7273 54.2835C36.8612 54.4342 37.062 54.5011 37.2628 54.5011H53.7634C53.9642 54.5011 54.1483 54.4174 54.2989 54.2835C54.4495 54.1496 54.5165 53.9487 54.5165 53.7478V43.2511C54.5165 42.0123 53.5124 41.0078 52.274 41.0078H52.2573ZM53.0103 53.0112H50.0148V45.5112H48.5086V53.0112H42.5008V45.5112H40.9947V53.0112H37.9992V43.2511C37.9992 42.8326 38.3339 42.4978 38.7522 42.4978H52.2573C52.4581 42.4978 52.6422 42.5815 52.7928 42.7154C52.9434 42.8493 53.0103 43.0502 53.0103 43.2511V53.0112Z" fill="white"/>
<path d="M53.7469 16.2461H42.3003C41.1289 13.5675 38.9533 11.4414 36.2255 10.3365C33.5145 9.23158 30.4688 9.23158 27.7577 10.3365C25.0467 11.4414 22.8711 13.5675 21.683 16.2461H10.2531C9.8347 16.2461 9.5 16.5809 9.5 16.9994V26.0061C9.5 26.207 9.58367 26.3912 9.71755 26.5419C9.85143 26.6925 10.0522 26.7595 10.2531 26.7595H15.9429L17.9678 28.7852C18.1017 28.9358 18.3025 29.0028 18.5033 29.0028C18.7042 29.0028 18.8882 28.9191 19.0389 28.7852L21.0638 26.7595H22.503C24.5614 30.024 28.1594 31.9827 32.0084 31.9827C35.8574 31.9827 39.4554 30.0073 41.5138 26.7595H42.953L44.9779 28.7852C45.1118 28.9358 45.3126 29.0028 45.5134 29.0028C45.7142 29.0028 45.8983 28.9191 46.0489 28.7852L48.0738 26.7595H53.7637C53.9645 26.7595 54.1486 26.6758 54.2992 26.5419C54.4498 26.4079 54.5167 26.207 54.5167 26.0061V16.9994C54.5167 16.7985 54.4331 16.6144 54.2992 16.4637C54.1653 16.3131 53.9645 16.2461 53.7637 16.2461H53.7469ZM20.7458 25.236C20.545 25.236 20.3609 25.3198 20.2103 25.4537L18.4866 27.178L16.7629 25.4537C16.629 25.3198 16.4282 25.236 16.2274 25.236H11.0061V17.736H21.1809C20.8964 18.707 20.7626 19.7282 20.7626 20.7327C20.7626 22.2896 21.0805 23.8131 21.6997 25.236H20.7626H20.7458ZM32.0084 30.4927C29.4145 30.4927 26.9377 29.4715 25.1136 27.63C23.2895 25.8052 22.252 23.3276 22.252 20.7327C22.252 18.1378 23.2728 15.6602 25.1136 13.8354C26.9377 12.0106 29.4145 10.9727 32.0084 10.9727C34.6023 10.9727 37.079 11.9939 38.9031 13.8354C40.7272 15.6602 41.7648 18.1378 41.7648 20.7327C41.7648 23.3276 40.744 25.8052 38.9031 27.63C37.079 29.4548 34.6023 30.4927 32.0084 30.4927ZM53.0106 25.236H47.7559C47.555 25.236 47.371 25.3198 47.2203 25.4537L45.4967 27.178L43.773 25.4537C43.6391 25.3198 43.4383 25.236 43.2374 25.236H42.3003C42.9195 23.8131 43.2542 22.2896 43.2374 20.7327C43.2374 19.7115 43.0868 18.707 42.8191 17.736H52.9939V25.236H53.0106Z" fill="white"/>
<path d="M33.1288 19.9961H30.8863C29.8487 19.9961 29.012 19.159 29.012 18.1211C29.012 17.0831 29.8487 16.2461 30.8863 16.2461H35.7561V14.7394H32.7606V12.4961H31.2545V14.7394H30.8863C29.0287 14.7394 27.5059 16.2461 27.5059 18.1211C27.5059 19.9961 29.012 21.5028 30.8863 21.5028H33.1288C34.1663 21.5028 35.0031 22.3398 35.0031 23.3778C35.0031 24.4157 34.1663 25.2528 33.1288 25.2528H28.2589V26.7595H31.2545V29.0028H32.7606V26.7595H33.1288C34.9863 26.7595 36.5092 25.2528 36.5092 23.3778C36.5092 21.5028 35.0031 19.9961 33.1288 19.9961Z" fill="white"/>
</g>
<defs>
<clipPath id="clip0_58_1774">
<rect width="45" height="45" fill="white" transform="translate(9.5 9.5)"/>
</clipPath>
</defs>
</svg>
