<svg width="64" height="64" viewBox="0 0 64 64" fill="none" xmlns="http://www.w3.org/2000/svg">
<path d="M34.3773 20.4818C34.3773 19.7299 35.5169 19.7299 35.5169 20.4818V22.166C37.3162 22.3615 39.1006 23.5795 39.1006 25.4141C39.1006 26.166 37.961 26.166 37.961 25.4141C37.961 24.2412 36.6865 23.4743 35.5169 23.3089V27.6547C37.3762 28.0006 39.1006 28.4968 39.1006 30.8427C39.1006 32.6773 37.3162 33.8953 35.5169 34.0908V35.775C35.5169 36.5269 34.3773 36.5269 34.3773 35.775V34.0908C32.5779 33.8953 30.7936 32.6773 30.7936 30.8427C30.7936 30.0908 31.9332 30.0908 31.9332 30.8427C31.9332 32.0156 33.2227 32.7825 34.3773 32.9329V28.6021C32.5179 28.2562 30.7936 27.76 30.7936 25.4141C30.7936 23.5795 32.5779 22.3615 34.3773 22.166V20.4818ZM35.5169 28.8126V32.9329C36.6865 32.7675 37.961 32.0156 37.961 30.8427C37.961 29.4743 36.8214 29.0833 35.5169 28.8126ZM34.3773 27.4292V23.3089C33.2077 23.4743 31.9332 24.2262 31.9332 25.4141C31.9332 26.7675 33.0877 27.1735 34.3773 27.4292ZM19.9374 49.6096V49.6397C22.3966 50.2111 24.6158 50.963 26.4751 51.6096C28.6943 52.3765 30.4037 52.963 31.3334 52.8427C33.1927 52.5871 44.3787 45.4292 48.8771 42.5419C49.6868 42.0156 50.3016 41.6397 50.4965 41.5043C50.8714 41.2637 51.1263 40.9028 51.2163 40.4818C51.3062 40.0908 51.2613 39.6848 51.0513 39.3089C50.6765 38.948 50.2416 38.6622 49.8218 38.557C49.4769 38.4818 49.117 38.5119 48.7721 38.7224L41.1099 43.5194C36.0417 46.6923 34.0324 46.2262 28.4544 44.948L27.7646 44.7825C27.1499 44.6472 27.1948 43.7299 27.8396 43.6547L34.3923 43.0382H34.4373C35.8318 43.0382 36.1017 41.9555 35.6668 41.0532C35.3519 40.3765 34.6172 39.8201 33.5826 39.8201C26.9699 39.8803 24.6008 40.166 19.9374 40.5269V49.6096ZM19.6076 50.7374C19.2177 51.3389 18.5429 51.7449 17.7932 51.7449H13.1749C11.9753 51.7449 11.0156 50.7675 11.0156 49.5795V39.5645C11.0156 38.3765 11.9903 37.3991 13.1749 37.3991H17.7782C18.9178 37.3991 19.8625 38.2863 19.9374 39.4141C20.2223 39.3991 20.5072 39.369 20.7771 39.354C20.5222 38.6472 20.6722 37.8352 21.227 37.2938L21.9467 36.572C22.2166 36.3013 22.2616 35.9254 22.0817 35.5946C21.4369 34.4668 20.9271 33.2637 20.5972 32.0006C20.5072 31.6397 20.1923 31.3991 19.8175 31.3991C18.8728 31.3991 18.1231 31.5194 17.4333 30.8277C17.0885 30.4818 16.8635 29.9856 16.8635 29.4442V26.8427C16.8635 25.76 17.7332 24.8878 18.8128 24.8878H19.8175C20.1923 24.8878 20.5072 24.6472 20.5972 24.2863C20.9421 23.0382 21.4369 21.8201 22.0817 20.7074C22.2766 20.3765 22.2166 20.0006 21.9467 19.7299C21.272 19.0683 20.6572 18.6021 20.6572 17.6397C20.6572 17.1434 20.8521 16.6171 21.227 16.2562L23.0563 14.4216C23.8211 13.6547 25.0656 13.6547 25.8153 14.4216L26.5351 15.1434C26.805 15.4141 27.1799 15.4592 27.5097 15.2788C28.6343 14.6322 29.8339 14.1209 31.0935 13.7901C31.4533 13.6998 31.6932 13.384 31.6932 13.0081V11.9705C31.6932 10.8878 32.5629 10.0156 33.6425 10.0156H36.2366C37.3162 10.0156 38.1859 10.8878 38.1859 11.9705V12.978C38.1859 13.354 38.4258 13.6698 38.7857 13.76C40.0303 14.1059 41.2448 14.6021 42.3544 15.2487C42.6843 15.4442 43.0742 15.384 43.3291 15.1134C43.9888 14.4367 44.4537 13.8201 45.4133 13.8201C45.9082 13.8201 46.418 14.0156 46.7928 14.3916L48.6222 16.2262C49.3869 16.9931 49.3869 18.2262 48.6222 18.9931L47.9025 19.7149C47.6325 19.9855 47.5876 20.3765 47.7675 20.6923C48.4123 21.8201 48.9221 23.0231 49.252 24.2713C49.3419 24.6322 49.6568 24.8728 50.0317 24.8728C50.9764 24.8728 51.7261 24.7525 52.4158 25.4442C52.7757 25.7901 52.9856 26.2863 52.9856 26.8277V29.4292C52.9856 30.5119 52.1159 31.384 51.0363 31.384H50.0317C49.6568 31.384 49.3419 31.6246 49.252 31.9856C49.102 32.572 48.8621 33.2788 48.6372 33.8201C48.3823 34.4216 48.0974 34.9931 47.7825 35.5645C47.3177 36.3615 48.3073 36.8126 48.8021 37.4592C49.9267 37.1434 51.0663 37.7149 51.876 38.5419C51.921 38.5871 51.951 38.6322 51.981 38.6773C52.3709 39.3239 52.4608 40.0607 52.3109 40.7374C52.1459 41.4292 51.7261 42.0607 51.0813 42.4668C50.6615 42.7374 50.1367 43.0683 49.4769 43.4893C44.9185 46.4216 33.5826 53.6848 31.4683 53.9555C30.2687 54.1209 28.4544 53.4893 26.0852 52.6773C24.2409 52.0758 22.0367 51.3089 19.5926 50.7525L19.6076 50.7374ZM18.8128 40.0156C18.8128 39.5495 18.8728 39.1886 18.5129 38.8277C18.318 38.6322 18.0781 38.5269 17.7932 38.5269H13.1749C12.6051 38.5269 12.1552 38.9931 12.1552 39.5495V49.5645C12.1552 50.1209 12.6201 50.5871 13.1749 50.5871H17.7782C18.348 50.5871 18.7978 50.1209 18.7978 49.5645V40.0006L18.8128 40.0156ZM22.0367 39.2337C25.1556 38.978 27.9296 38.7374 33.5826 38.6923C35.202 38.6923 36.3416 39.6397 36.7914 40.7976L42.4594 37.2337C43.7639 36.4066 45.1884 37.0081 46.1781 38.0006C46.328 38.151 46.493 38.557 46.5529 38.7525L47.7675 38.0006C47.1977 37.4292 46.6729 37.0382 46.5679 36.2111C46.5079 35.7901 46.5979 35.369 46.8078 34.978C47.1077 34.4517 47.3776 33.9254 47.6026 33.369C47.8275 32.8277 48.0224 32.2562 48.1724 31.6698C48.3973 30.8126 49.177 30.2111 50.0467 30.2111H51.0513C51.4862 30.2111 51.861 29.8502 51.861 29.3991V26.7976C51.861 26.3465 51.5012 25.9856 51.0513 25.9856C50.2116 25.9856 49.5069 26.0908 48.8471 25.5795C48.5172 25.3239 48.2623 24.963 48.1574 24.5269C47.8425 23.369 47.3926 22.2562 46.7779 21.2186C46.343 20.4517 46.463 19.4893 47.0927 18.8577L47.8125 18.1359C48.1274 17.8201 48.1274 17.3089 47.8125 16.978L45.9831 15.1434C45.6682 14.8277 45.1584 14.8277 44.8285 15.1434C44.2288 15.7449 43.8089 16.3164 42.9992 16.4216C42.5794 16.4818 42.1595 16.3916 41.7696 16.181C40.735 15.5795 39.6254 15.1134 38.4708 14.7976C37.6161 14.572 37.0163 13.7901 37.0163 12.9179V11.9104C37.0163 11.4743 36.6565 11.0983 36.2066 11.0983H33.6126C33.1777 11.0983 32.8028 11.4592 32.8028 11.9104V12.9179C32.8028 13.8051 32.2181 14.572 31.3484 14.7976C30.1938 15.1134 29.0842 15.5645 28.0495 16.181C27.2848 16.6171 26.3252 16.4968 25.6954 15.8652L24.9756 15.1434C24.6608 14.8277 24.1509 14.8277 23.8211 15.1434L21.9917 16.978C21.8268 17.1434 21.7518 17.3389 21.7518 17.5495C21.7518 17.76 21.8418 17.9705 21.9917 18.1209L22.7114 18.8427C23.3412 19.4743 23.4612 20.4216 23.0263 21.2036C22.4265 22.2412 21.9617 23.354 21.6468 24.5119C21.4219 25.369 20.6572 25.9705 19.7725 25.9705H18.7679C18.333 25.9705 17.9581 26.3314 17.9581 26.7825V29.384C17.9581 29.8201 18.318 30.1961 18.7679 30.1961C19.6076 30.1961 20.3123 30.0908 20.9721 30.6021C21.302 30.8577 21.5569 31.2186 21.6618 31.6547C21.9767 32.8126 22.4265 33.9254 23.0413 34.963C23.4762 35.7299 23.3562 36.6923 22.7264 37.3239L22.0067 38.0457C21.6918 38.3765 21.6918 38.8878 22.0067 39.2186L22.0367 39.2337ZM36.9863 42.0307C36.9714 42.3164 36.8964 42.572 36.7914 42.8277C36.4465 43.5946 35.6968 44.181 34.4822 44.1961C33.3426 44.2863 32.353 44.3916 31.5133 44.4668C34.8271 45.1134 36.7914 44.9179 40.5101 42.5871L45.5483 39.4292C45.5483 39.354 45.5333 39.2788 45.5033 39.2036L45.3384 38.7976C44.9635 38.4367 44.5436 38.151 44.1088 38.0457C43.7639 37.9555 43.4041 38.0006 43.0742 38.2111L36.9714 42.0307H36.9863ZM34.9471 17.8051C40.63 17.8051 45.2334 22.4216 45.2334 28.1209C45.2334 33.8201 40.63 38.4367 34.9471 38.4367C29.2641 38.4367 24.6608 33.8201 24.6608 28.1209C24.6608 22.4066 29.2641 17.8051 34.9471 17.8051ZM41.4248 21.6397C37.856 18.0607 32.0531 18.0607 28.4844 21.6397C24.9157 25.2186 24.9157 31.0382 28.4844 34.6171C32.0531 38.1961 37.856 38.1961 41.4248 34.6171C44.9935 31.0382 44.9935 25.2186 41.4248 21.6397Z" fill="white"/>
</svg>
