<svg width="64" height="64" viewBox="0 0 64 64" fill="none" xmlns="http://www.w3.org/2000/svg">
<path fill-rule="evenodd" clip-rule="evenodd" d="M9.68241 19.8722C9.68241 13.8661 14.5498 9 20.5537 9H40.7456C46.7512 9 51.617 13.8678 51.617 19.8722V29.1919C51.617 30.0501 50.9211 30.746 50.0629 30.746C49.2048 30.746 48.509 30.0501 48.509 29.1919V19.8722C48.509 15.5826 45.0315 12.1049 40.7423 12.1049H39.1884V21.4246C39.1884 22.2829 38.4925 22.9787 37.6343 22.9787H23.6551C22.7969 22.9787 22.1011 22.2829 22.1011 21.4246V12.1049H20.5471C16.2579 12.1049 12.7804 15.5826 12.7804 19.8722V40.0657C12.7804 44.3552 16.2579 47.8329 20.5471 47.8329H27.5367C28.3949 47.8329 29.0907 48.5288 29.0907 49.3871C29.0907 50.2453 28.3949 50.9412 27.5367 50.9412H20.5471C14.5415 50.9412 9.67578 46.0734 9.67578 40.069V19.8755L9.68241 19.8722ZM25.214 12.1049H36.0853V19.8722H25.214V12.1049Z" fill="#4677F4"/>
<path fill-rule="evenodd" clip-rule="evenodd" d="M50.0905 34.1003C45.488 29.4978 38.0267 29.4978 33.4226 34.1003C28.8201 38.7044 28.8201 46.1658 33.4226 50.7682C37.6614 55.0071 44.324 55.3415 48.9444 51.7764L51.7237 54.5557C52.3195 55.1499 53.2822 55.1499 53.878 54.5557C54.4722 53.9599 54.4722 52.9972 53.878 52.4014L51.0987 49.6221C54.6638 45.0017 54.3294 38.3391 50.0905 34.1003ZM35.5769 36.253C38.9894 32.8373 44.5253 32.8373 47.9395 36.253C51.3519 39.6655 51.3519 45.2014 47.9395 48.6155C44.527 52.0297 38.991 52.028 35.5769 48.6155C32.1611 45.2031 32.1611 39.6671 35.5769 36.253Z" fill="#4677F4"/>
</svg>
