<svg width="64" height="63" viewBox="0 0 64 63" fill="none" xmlns="http://www.w3.org/2000/svg">
<g clip-path="url(#clip0_58_1756)">
<path d="M41.9504 29.6455C41.6887 24.9504 37.953 21.1275 33.2579 20.7495C29.8419 20.4733 26.5277 22.0723 24.609 24.9068C23.9839 25.8226 23.6932 26.9854 23.7659 28.2501C23.7659 28.3373 23.7659 28.439 23.7659 28.5408C23.7659 29.4711 23.7077 30.0961 23.3589 31.1863C23.1699 31.7532 22.7629 32.9016 22.1379 34.1517C21.9634 34.5151 21.978 34.9366 22.1669 35.2855C22.3559 35.6198 22.7193 35.8524 23.1118 35.8669C23.4752 35.896 23.8967 35.8669 24.3764 35.8233C24.2601 36.6373 24.202 38.0182 24.9578 39.2247C25.4957 40.0969 26.6149 40.3585 27.8214 40.3585C29.1733 40.3585 30.5978 40.0097 31.3682 39.7916C31.5281 40.4458 31.6153 41.1144 31.6153 41.7976C31.6153 42.0011 31.7461 42.1901 31.9351 42.2628C32.0078 42.2918 32.9817 42.6407 34.508 42.6407C35.9325 42.6407 37.8222 42.3354 39.9299 41.1871C40.1479 41.0708 40.2497 40.7946 40.1479 40.562C40.0026 40.2423 39.7991 38.9922 39.7991 38.12C39.7991 37.3351 39.9008 36.5647 40.1188 35.8233C41.4125 34.0499 42.0667 31.8695 41.9358 29.6601L41.9504 29.6455ZM32.6038 41.4197C32.5747 40.6202 32.4439 39.8352 32.2113 39.0794C32.2113 39.0503 32.2113 39.0358 32.2113 39.0067C32.1241 38.745 31.8479 38.6142 31.5862 38.6869C30.3507 39.0939 26.6149 39.9661 25.8155 38.6869C24.9288 37.2478 25.4811 35.4018 25.4957 35.3872C25.5393 35.2273 25.5102 35.0529 25.4084 34.9221C25.3067 34.7913 25.1323 34.7331 24.9578 34.7477C24.2456 34.8494 23.6641 34.893 23.199 34.8639C23.1118 34.8639 23.0682 34.8058 23.0536 34.7767C23.0391 34.7477 23.01 34.675 23.0536 34.5878C23.6932 33.2795 24.1293 32.0876 24.3182 31.4916C24.7107 30.2851 24.7834 29.5583 24.7834 28.5408C24.7834 28.4245 24.7834 28.3082 24.7834 28.2065C24.7253 27.1599 24.9578 26.2005 25.4521 25.4737C27.1673 22.9299 30.1472 21.5054 33.1997 21.7525C37.4006 22.0868 40.7439 25.5173 40.9765 29.7327C41.0928 31.7532 40.4968 33.7301 39.2903 35.3436C39.2758 35.3582 39.2758 35.3727 39.2612 35.4018C39.2467 35.4308 39.2176 35.4599 39.2031 35.5035C38.956 36.3611 38.8251 37.2478 38.8251 38.1491C38.8251 38.8613 38.956 39.8789 39.1159 40.533C36.0342 42.0883 33.4614 41.6668 32.6038 41.4487V41.4197Z" fill="white"/>
<path d="M48.8245 25.8528C49.0135 26.3761 49.5222 26.7395 50.1037 26.7395C50.8741 26.7395 51.4846 26.1144 51.4846 25.3586C51.4846 24.6027 50.8596 23.9776 50.1037 23.9776C49.5077 23.9776 49.0135 24.341 48.8245 24.8643H45.8883V23.9776C45.8883 20.4599 43.0247 17.5963 39.507 17.5963H38.6203V12.8867C38.6203 12.6105 38.4022 12.3925 38.126 12.3925C37.8499 12.3925 37.6318 12.6105 37.6318 12.8867V17.5963H32.4861V12.8867C32.4861 12.6105 32.2681 12.3925 31.9919 12.3925C31.7157 12.3925 31.4976 12.6105 31.4976 12.8867V17.5963H26.3519V14.6601C26.8752 14.4711 27.2386 13.9624 27.2386 13.3809C27.2386 12.6105 26.6136 12 25.8577 12C25.1018 12 24.4768 12.625 24.4768 13.3809C24.4768 13.9769 24.8402 14.4711 25.3635 14.6601V17.5963H24.4768C20.9591 17.5963 18.0955 20.4599 18.0955 23.9776V24.8643H13.3858C13.1096 24.8643 12.8916 25.0824 12.8916 25.3586C12.8916 25.6347 13.1096 25.8528 13.3858 25.8528H18.0955V30.9985H13.3858C13.1096 30.9985 12.8916 31.2165 12.8916 31.4927C12.8916 31.7689 13.1096 31.987 13.3858 31.987H18.0955V37.1327H15.1738C14.9848 36.6094 14.476 36.246 13.8946 36.246C13.1242 36.246 12.5137 36.871 12.5137 37.6269C12.5137 38.3828 13.1387 39.0078 13.8946 39.0078C14.4906 39.0078 14.9848 38.6444 15.1738 38.1211H18.11V39.0078C18.11 42.5255 20.9736 45.3891 24.4913 45.3891H25.378V50.0988C25.378 50.375 25.596 50.593 25.8722 50.593C26.1484 50.593 26.3664 50.375 26.3664 50.0988V45.3891H31.5122V50.0988C31.5122 50.375 31.7302 50.593 32.0064 50.593C32.2826 50.593 32.5006 50.375 32.5006 50.0988V45.3891H37.6464V48.3254C37.1376 48.5289 36.7742 49.0231 36.7742 49.6045C36.7742 50.375 37.3992 50.9855 38.1551 50.9855C38.911 50.9855 39.536 50.3604 39.536 49.6045C39.536 49.0086 39.1581 48.5143 38.6348 48.3108V45.3746H39.5215C43.0392 45.3746 45.9028 42.511 45.9028 38.9933V38.1066H50.6124C50.8886 38.1066 51.1067 37.8886 51.1067 37.6124C51.1067 37.3362 50.8886 37.1182 50.6124 37.1182H45.9028V31.9724H50.6124C50.8886 31.9724 51.1067 31.7544 51.1067 31.4782C51.1067 31.202 50.8886 30.984 50.6124 30.984H45.9028V25.8382H48.8391L48.8245 25.8528ZM44.9143 39.0078C44.9143 41.9877 42.4868 44.4152 39.507 44.4152H24.4913C21.5114 44.4152 19.0839 41.9877 19.0839 39.0078V23.9922C19.0839 21.0123 21.5114 18.5848 24.4913 18.5848H39.507C42.4868 18.5848 44.9143 21.0123 44.9143 23.9922V39.0078Z" fill="white"/>
<path d="M38.6202 27.5393C38.3295 26.8416 37.6609 26.42 36.905 26.4491C36.6724 26.4636 36.4689 26.3764 36.3236 26.2165C36.1637 26.0566 36.091 25.8531 36.091 25.6351C36.1346 24.8792 35.6985 24.2105 35.0008 23.9198C34.3031 23.6291 33.5327 23.8035 33.0239 24.3704C32.7332 24.7048 32.1663 24.7048 31.8756 24.3704C31.3668 23.8035 30.5964 23.6436 29.8987 23.9198C29.2009 24.2105 28.7794 24.8792 28.8085 25.6351C28.8085 25.8531 28.7358 26.0712 28.5759 26.2165C28.416 26.3764 28.2125 26.4636 27.9944 26.4491C27.2386 26.4055 26.5699 26.8416 26.2792 27.5393C25.9885 28.237 26.1629 29.0074 26.7298 29.5162C26.8897 29.6615 26.9915 29.865 26.9915 30.0976C26.9915 30.3302 26.9043 30.5192 26.7298 30.6791C26.1629 31.1878 26.003 31.9582 26.2792 32.6559C26.5699 33.3537 27.2386 33.7898 27.9944 33.7461C28.2125 33.7316 28.4305 33.8188 28.5759 33.9787C28.7358 34.1386 28.8085 34.3421 28.8085 34.5602C28.7649 35.316 29.1864 35.9847 29.8987 36.2754C30.1167 36.3626 30.3493 36.4208 30.5818 36.4208C31.0615 36.4208 31.5412 36.2173 31.8756 35.8393C32.1663 35.505 32.7332 35.505 33.0239 35.8393C33.5327 36.4062 34.3031 36.5661 35.0008 36.2899C35.6985 35.9992 36.1201 35.3306 36.091 34.5747C36.091 34.3567 36.1637 34.1386 36.3236 33.9933C36.4835 33.8334 36.687 33.7607 36.905 33.7607C37.6609 33.8043 38.3295 33.3682 38.6202 32.6705C38.911 31.9728 38.7365 31.2023 38.1696 30.6936C38.0097 30.5482 37.908 30.3447 37.908 30.1122C37.908 29.8796 37.9952 29.6906 38.1696 29.5307C38.7365 29.022 38.8964 28.2515 38.6202 27.5538V27.5393ZM37.5155 31.3913C37.8208 31.6675 37.8062 32.0164 37.7045 32.2635C37.6027 32.5106 37.3701 32.7577 36.9486 32.7432C36.4544 32.7141 35.9747 32.9031 35.6113 33.2519C35.2624 33.6008 35.0735 34.095 35.1025 34.5892C35.1171 34.9962 34.87 35.2433 34.6228 35.3451C34.3757 35.4468 34.0269 35.4469 33.7507 35.1561C33.4164 34.7927 32.9367 34.5747 32.4425 34.5747C31.9482 34.5747 31.4685 34.7927 31.1342 35.1561C30.858 35.4614 30.5092 35.4468 30.2621 35.3451C30.0149 35.2433 29.7678 34.9962 29.7824 34.5892C29.8114 34.095 29.6225 33.6153 29.2736 33.2519C28.9393 32.9176 28.5032 32.7286 28.0381 32.7286H27.9508C27.5584 32.7432 27.2967 32.496 27.195 32.2489C27.0932 32.0018 27.0932 31.653 27.3839 31.3768C27.7473 31.0425 27.9654 30.5628 27.9654 30.0685C27.9654 29.5743 27.7473 29.0946 27.3839 28.7603C27.0787 28.4841 27.0932 28.1353 27.195 27.8881C27.2967 27.641 27.5438 27.3939 27.9508 27.4085C28.4451 27.4375 28.9247 27.2486 29.2881 26.8997C29.637 26.5508 29.826 26.0566 29.7969 25.5624C29.7824 25.1554 30.0295 24.9083 30.2766 24.8065C30.5237 24.7048 30.8726 24.7048 31.1488 24.9955C31.4831 25.3589 31.9628 25.5769 32.457 25.5769C32.9512 25.5769 33.4309 25.3589 33.7652 24.9955C34.0414 24.6902 34.3903 24.7048 34.6374 24.8065C34.8845 24.9083 35.1316 25.1554 35.1171 25.5624C35.088 26.0566 35.277 26.5363 35.6258 26.8997C35.9747 27.2486 36.4689 27.4375 36.9631 27.4085C37.3701 27.3939 37.6173 27.641 37.719 27.8881C37.8208 28.1353 37.8208 28.4841 37.53 28.7603C37.1666 29.0946 36.9486 29.5743 36.9486 30.0685C36.9486 30.5628 37.1666 31.0425 37.53 31.3768L37.5155 31.3913Z" fill="white"/>
<path d="M32.4583 26.7109C30.5977 26.7109 29.0859 28.2227 29.0859 30.0833C29.0859 31.9439 30.5977 33.4556 32.4583 33.4556C34.3189 33.4556 35.8306 31.9439 35.8306 30.0833C35.8306 28.2227 34.3189 26.7109 32.4583 26.7109ZM32.4583 32.4817C31.1355 32.4817 30.0598 31.4061 30.0598 30.0833C30.0598 28.7605 31.1355 27.6848 32.4583 27.6848C33.7811 27.6848 34.8567 28.7605 34.8567 30.0833C34.8567 31.4061 33.7811 32.4817 32.4583 32.4817Z" fill="white"/>
</g>
<defs>
<clipPath id="clip0_58_1756">
<rect width="39" height="39" fill="white" transform="translate(12.5 12)"/>
</clipPath>
</defs>
</svg>
