<svg width="64" height="64" viewBox="0 0 64 64" fill="none" xmlns="http://www.w3.org/2000/svg">
<g clip-path="url(#clip0_58_1786)">
<path d="M24.4568 13.2835L23.9658 12.9841C23.0972 12.4603 23.8903 11.1507 24.7778 11.6745C27.9501 13.6015 27.799 12.9841 25.6841 15.9775C25.0988 16.8007 23.8336 15.9214 24.419 15.0982L24.5701 14.8737C21.2656 15.9962 18.2821 17.8858 15.8651 20.4676C15.1853 21.1973 14.0335 20.1683 14.7321 19.4199C17.4135 16.5575 20.7369 14.4621 24.4379 13.2835H24.4568ZM53.8195 46.6411C52.8564 48.3811 50.6472 48.9984 48.9099 48.0443C47.456 47.2585 46.7762 45.5935 47.135 44.0593L42.9241 41.7956V44.7329C42.9241 45.1632 42.5842 45.4999 42.1499 45.4999H32.1609V52.9086C33.7848 53.264 35.0122 54.6859 35.0122 56.4071C35.0122 58.3715 33.3883 59.9992 31.3867 59.9992C29.3852 59.9992 27.7612 58.3902 27.7612 56.4071C27.7612 54.6859 28.9697 53.264 30.6125 52.9086V45.4999H20.6047C20.1704 45.4999 19.8305 45.1632 19.8305 44.7329V42.1323L15.6763 44.5645C16.0162 46.716 14.3734 48.7178 12.1074 48.7178C9.69043 48.7178 7.95322 46.4353 8.633 44.1342C9.48272 41.2343 13.3915 40.5982 15.1098 43.1239L19.8494 40.355V29.373L14.6944 26.6041C14.0146 27.2963 13.0704 27.6705 12.1074 27.6705C9.36942 27.6705 7.63221 24.7332 8.954 22.3572C9.91703 20.6173 12.1074 19.9999 13.8635 20.9541C15.4308 21.8147 16.1106 23.6668 15.5252 25.3132L19.8494 27.6518V25.0513C19.8494 24.621 20.1893 24.2842 20.6236 24.2842H30.6125V16.0711C28.9886 15.7156 27.7612 14.2937 27.7612 12.5725C27.7612 10.6081 29.3852 8.98047 31.3867 8.98047C33.3883 8.98047 35.0122 10.5894 35.0122 12.5725C35.0122 14.2937 33.8037 15.7156 32.1609 16.0711V24.2655H42.1499C42.5842 24.2655 42.9241 24.6023 42.9241 25.0326V27.0531L47.1161 24.6023C46.7762 23.1056 47.4749 21.4966 48.9099 20.7108C50.6472 19.7567 52.8564 20.3928 53.8195 22.114C55.1413 24.5087 53.3852 27.4273 50.666 27.4273C49.552 27.4273 48.4756 26.9221 47.777 26.0054L42.943 28.8304V40.037L47.8336 42.6749C48.9099 41.3279 50.8549 40.8976 52.4221 41.7582C54.0272 42.5626 54.858 44.8077 53.8383 46.6224L53.8195 46.6411ZM48.6267 24.1907C48.9288 24.3778 49.0421 24.7145 48.9855 25.0139C49.5897 25.8557 50.7416 26.1364 51.6668 25.6312C52.6676 25.0887 53.0264 23.8352 52.4788 22.8436C51.3458 20.8231 48.2302 21.9082 48.6267 24.1907ZM29.3285 12.5913C29.3285 13.7138 30.2538 14.6492 31.4056 14.6492C32.5575 14.6492 33.4827 13.7325 33.4827 12.5913C33.4827 11.45 32.5575 10.5333 31.4056 10.5333C30.2538 10.5333 29.3285 11.45 29.3285 12.5913ZM11.1255 25.8932C12.1263 26.4357 13.3915 26.0802 13.9391 25.0887C14.4867 24.0971 14.1279 22.8436 13.1271 22.3011C10.5968 21.0476 8.80294 24.621 11.1255 25.8932ZM12.1074 43.0865C11.2199 43.0865 10.3891 43.6665 10.1247 44.5645C9.6149 46.3044 11.4843 47.8198 13.1082 46.9218C14.9776 45.8928 14.2412 43.0865 12.1074 43.0865ZM31.3867 58.4651C32.5197 58.4651 33.4638 57.5483 33.4638 56.4071C33.4638 55.2659 32.5386 54.3491 31.3867 54.3491C30.2349 54.3491 29.3096 55.2659 29.3096 56.4071C29.3096 57.5483 30.2349 58.4651 31.3867 58.4651ZM21.3977 43.9658H41.3757V25.8183H35.4654V31.5806C35.4654 32.2167 34.7101 32.5722 34.2191 32.1793L31.3867 29.953C28.29 32.4038 28.441 32.3477 28.0822 32.3477C27.6479 32.3477 27.3081 32.0109 27.3081 31.5806V25.8183H21.3977V43.9845V43.9658ZM28.8564 25.8183V29.9904L30.9147 28.3627C31.1979 28.1382 31.5944 28.1382 31.8777 28.3627L33.9359 29.9904V25.8183H28.8564ZM52.4599 45.8928C53.2152 44.5458 52.2144 42.862 50.6472 42.862C48.4945 42.862 47.7959 45.687 49.6464 46.6973C50.6472 47.2398 51.9123 46.8844 52.4599 45.8928ZM37.1271 53.3014C35.3521 56.4632 35.1255 55.902 38.4867 57.4922C39.4119 57.9225 40.0728 56.5381 39.1476 56.1078L38.7888 55.9394C42.4143 54.7046 45.6621 52.5718 48.249 49.7094C48.9288 48.961 47.777 47.932 47.0972 48.6804C44.6613 51.3745 41.6212 53.3576 38.2223 54.4988L38.4678 54.0498C38.9587 53.1705 37.618 52.4221 37.1082 53.3014H37.1271ZM44.869 20.3367C48.5512 20.7296 48.0602 21.1224 48.2113 17.4742C48.249 16.464 46.7007 16.4078 46.6629 17.3994V18.0729C43.8305 15.5285 40.4316 13.7512 36.7306 12.8532C35.7298 12.61 35.371 14.1067 36.3718 14.3499C39.6385 15.1356 42.622 16.6698 45.1523 18.84C43.8871 18.709 43.906 20.2431 44.869 20.3554V20.3367ZM17.6401 50.121C18.6597 50.121 18.6597 48.5868 17.6401 48.5868C13.9579 48.5868 14.3922 48.1378 14.6188 51.786C14.6755 52.7963 16.2239 52.7028 16.1672 51.6925V51.3183C20.2837 55.0601 25.4387 56.5381 26.1562 56.5381C27.0626 56.5381 27.2325 55.2472 26.345 55.0227C22.8895 54.1808 19.7361 52.497 17.1302 50.1023H17.659L17.6401 50.121ZM54.3482 38.2222L53.725 38.5777C54.3482 35.0791 54.1027 31.6554 53.1963 28.5311C52.9131 27.5582 51.4214 27.9885 51.7046 28.9614C52.4977 31.6929 52.7243 34.6114 52.29 37.661C51.7801 36.6133 50.4206 37.3616 50.8549 38.2596C52.4599 41.5337 51.8557 41.384 55.0846 39.5692C55.9721 39.0641 55.2168 37.7358 54.3293 38.2409L54.3482 38.2222ZM9.0673 30.7387C8.46305 34.0876 8.633 37.3803 9.46384 40.486C9.7282 41.4775 11.2199 41.0659 10.9556 40.0931C10.1625 37.1932 10.0303 34.1063 10.5968 30.9819L10.8612 31.4122C11.4088 32.2728 12.7117 31.4684 12.183 30.6078C10.8612 28.5124 10.8989 28.5498 10.8234 28.475C10.6157 28.2505 10.2758 28.1569 9.97367 28.2692C9.82261 28.3253 9.82261 28.344 7.82104 29.7472C6.9902 30.3271 7.87769 31.5806 8.70853 31.0006L9.04842 30.7574L9.0673 30.7387ZM34.2191 40.8414H38.3734C39.393 40.8414 39.393 39.3073 38.3734 39.3073H34.2191C33.1995 39.3073 33.1995 40.8414 34.2191 40.8414Z" fill="white"/>
</g>
<defs>
<clipPath id="clip0_58_1786">
<rect width="48" height="51" fill="white" transform="translate(7.5 9)"/>
</clipPath>
</defs>
</svg>
