<svg width="64" height="64" viewBox="0 0 64 64" fill="none" xmlns="http://www.w3.org/2000/svg">
<g clip-path="url(#clip0_58_1594)">
<path d="M27.62 14.8789C26.77 14.8789 26.07 15.5789 26.07 16.4289V16.8389H20.75C19.24 16.8389 18 18.0789 18 19.5889V46.3689C18 47.8789 19.24 49.1189 20.75 49.1189H42.83C44.34 49.1189 45.58 47.8789 45.58 46.3689V19.5889C45.58 18.0789 44.34 16.8389 42.83 16.8389H37.51V16.4289C37.51 15.5789 36.81 14.8789 35.96 14.8789H27.62ZM27.62 16.1589H35.96C36.12 16.1589 36.24 16.2689 36.24 16.4289V18.5289C36.24 18.6889 36.12 18.7989 35.96 18.7989H27.62C27.46 18.7989 27.35 18.6889 27.35 18.5289V16.4289C27.35 16.2689 27.46 16.1589 27.62 16.1589ZM20.75 18.1089H26.08V18.5189C26.08 19.3689 26.78 20.0689 27.63 20.0689H35.97C36.82 20.0689 37.52 19.3689 37.52 18.5189V18.1089H42.84C43.67 18.1089 44.32 18.7589 44.32 19.5889V46.3689C44.32 47.1989 43.67 47.8489 42.84 47.8489H20.75C19.92 47.8489 19.28 47.1989 19.28 46.3689V19.5889C19.28 18.7589 19.92 18.1089 20.75 18.1089ZM28.29 23.8189C28.12 23.8189 27.96 23.8889 27.84 24.0089L25.18 26.7089L23.94 25.4389C23.82 25.3189 23.66 25.2489 23.49 25.2489C23.32 25.2489 23.16 25.3089 23.04 25.4289C22.79 25.6789 22.79 26.0789 23.04 26.3289L24.73 28.0589C24.85 28.1789 25.01 28.2489 25.18 28.2489C25.35 28.2489 25.51 28.1789 25.63 28.0589L28.75 24.8889C28.99 24.6389 28.99 24.2389 28.75 23.9889C28.63 23.8689 28.47 23.8089 28.3 23.8089L28.29 23.8189ZM31.87 25.3989C31.52 25.3989 31.24 25.6789 31.24 26.0289C31.24 26.3789 31.52 26.6589 31.87 26.6589H40.1C40.45 26.6589 40.73 26.3789 40.73 26.0289C40.73 25.6789 40.45 25.3989 40.1 25.3989H31.87ZM28.29 31.3389C28.12 31.3389 27.96 31.4089 27.84 31.5289L25.18 34.2289L23.94 32.9589C23.82 32.8389 23.66 32.7689 23.49 32.7689C23.32 32.7689 23.16 32.8289 23.04 32.9489C22.92 33.0689 22.85 33.2289 22.85 33.3989C22.85 33.5689 22.92 33.7289 23.03 33.8489L24.72 35.5689C24.84 35.6889 25 35.7589 25.17 35.7589C25.34 35.7589 25.5 35.6889 25.62 35.5689L28.74 32.3989C28.98 32.1489 28.98 31.7489 28.74 31.4989C28.62 31.3789 28.46 31.3189 28.29 31.3189V31.3389ZM31.87 32.9189C31.52 32.9189 31.24 33.1989 31.24 33.5489C31.24 33.8989 31.52 34.1889 31.87 34.1889H40.1C40.27 34.1889 40.43 34.1189 40.55 33.9989C40.67 33.8789 40.73 33.7189 40.73 33.5489C40.73 33.1989 40.45 32.9189 40.1 32.9189H31.87ZM28.29 38.8689C28.12 38.8689 27.96 38.9389 27.84 39.0589L25.18 41.7589L23.94 40.4989C23.82 40.3789 23.66 40.3089 23.49 40.3089C23.32 40.3089 23.16 40.3689 23.04 40.4889C22.92 40.6089 22.85 40.7689 22.85 40.9389C22.85 41.1089 22.92 41.2689 23.03 41.3889L24.72 43.1089C24.84 43.2289 25 43.2989 25.17 43.2989C25.34 43.2989 25.5 43.2289 25.62 43.1089L28.74 39.9489C28.86 39.8289 28.93 39.6689 28.92 39.4989C28.92 39.3289 28.85 39.1689 28.73 39.0489C28.61 38.9289 28.45 38.8689 28.28 38.8689H28.29ZM31.87 40.4489C31.52 40.4489 31.24 40.7289 31.24 41.0789C31.24 41.4289 31.52 41.7189 31.87 41.7189H40.1C40.27 41.7189 40.43 41.6489 40.55 41.5289C40.67 41.4089 40.73 41.2489 40.73 41.0789C40.73 40.7289 40.45 40.4489 40.1 40.4489H31.87Z" fill="white"/>
</g>
<defs>
<clipPath id="clip0_58_1594">
<rect width="27.58" height="34.24" fill="white" transform="translate(18 14.8789)"/>
</clipPath>
</defs>
</svg>
