<svg width="63" height="63" viewBox="0 0 63 63" fill="none" xmlns="http://www.w3.org/2000/svg">
<path fill-rule="evenodd" clip-rule="evenodd" d="M32.7393 24.0047H30.2607V25.2589C30.2607 25.4978 30.1114 25.7068 29.8576 25.7815C29.6336 25.8412 29.4246 25.9159 29.2156 26.0055C29.0215 26.095 28.8274 26.1846 28.6482 26.2742C28.4392 26.4086 28.1406 26.3937 27.9614 26.1996L27.0655 25.3037L25.3037 27.0655L26.1996 27.9614C26.3638 28.1256 26.4086 28.3944 26.2891 28.6184C26.1846 28.8125 26.0801 29.0215 25.9905 29.2305C25.9159 29.4246 25.8412 29.6336 25.7815 29.8427C25.7218 30.0816 25.5127 30.2607 25.244 30.2607H23.9898V32.7393H25.244C25.4829 32.7393 25.6919 32.8886 25.7666 33.1424C25.8263 33.3664 25.9009 33.5754 25.9905 33.7844C26.0801 33.9785 26.1697 34.1726 26.2593 34.3518C26.3937 34.5608 26.3787 34.8594 26.1846 35.0386L25.2888 35.9345L27.0506 37.6963L27.9465 36.8004C28.1107 36.6362 28.3795 36.5914 28.5885 36.7109C28.7826 36.8154 28.9916 36.9199 29.2007 37.0095C29.3948 37.0841 29.6038 37.1588 29.8128 37.2185C30.0517 37.2782 30.2309 37.4873 30.2309 37.756V39.0102H32.7094V37.756C32.7094 37.5171 32.8587 37.3081 33.1125 37.2334C33.3365 37.1737 33.5455 37.0991 33.7546 37.0095C33.9487 36.9199 34.1428 36.8303 34.3219 36.7407C34.531 36.6063 34.8296 36.6213 35.0087 36.8154L35.9046 37.7112L37.6664 35.9494L36.7706 35.0535C36.6063 34.8893 36.5615 34.6205 36.681 34.3966C36.7855 34.2025 36.89 33.9934 36.9796 33.7844C37.0543 33.5903 37.1289 33.3813 37.1886 33.1723C37.2484 32.9334 37.4574 32.7542 37.7261 32.7542H38.9803V30.2757H37.7261C37.4873 30.2757 37.2782 30.1264 37.2036 29.8725C37.1438 29.6486 37.0692 29.4395 36.9796 29.2305C36.89 29.0364 36.8004 28.8423 36.7109 28.6631C36.5765 28.4541 36.5914 28.1555 36.7855 27.9763L37.6814 27.0805L35.9195 25.3186L35.0237 26.2145C34.8594 26.3787 34.5907 26.4235 34.3816 26.3041C34.1875 26.1996 33.9785 26.095 33.7695 26.0055C33.5754 25.9308 33.3664 25.8562 33.1573 25.7964C32.9184 25.7367 32.7393 25.5277 32.7393 25.2589V24.0047ZM30.1413 22.9148H32.8587C33.1275 22.9148 33.3664 23.0193 33.5455 23.1985C33.7247 23.3776 33.8292 23.6165 33.8292 23.8853V24.8707C33.9487 24.9155 34.0681 24.9603 34.1875 25.0051C34.307 25.0499 34.4264 25.1096 34.5459 25.1544L35.2327 24.4676C35.2327 24.4676 35.2626 24.4377 35.2775 24.4228C35.4567 24.2586 35.6956 24.169 35.9195 24.169C36.1733 24.169 36.4122 24.2586 36.6063 24.4527L38.5175 26.3638C38.5175 26.3638 38.5473 26.3937 38.5623 26.4086C38.7265 26.5878 38.8161 26.8267 38.8161 27.0506C38.8161 27.3044 38.7265 27.5433 38.5324 27.7374L37.8456 28.4243C37.9053 28.5437 37.9501 28.6631 37.9949 28.7826C38.0397 28.902 38.0845 29.0215 38.1293 29.1409H39.1147C39.3835 29.1409 39.6224 29.2454 39.8015 29.4246C39.8015 29.4246 39.8314 29.4545 39.8463 29.4694C39.9956 29.6486 40.0852 29.8725 40.0852 30.1114V32.8288C40.0852 33.0976 39.9807 33.3365 39.8015 33.5157C39.6224 33.6948 39.3835 33.7993 39.1147 33.7993H38.1293C38.0845 33.9188 38.0397 34.0382 37.9949 34.1577C37.9501 34.2771 37.8904 34.3966 37.8456 34.516L38.5324 35.2028C38.7265 35.3969 38.8161 35.6508 38.8161 35.8897C38.8161 36.1286 38.7265 36.3824 38.5324 36.5765L36.6213 38.4876C36.4272 38.6817 36.1733 38.7713 35.9345 38.7713C35.6806 38.7713 35.4268 38.6817 35.2476 38.4876L34.5608 37.8008C34.4414 37.8605 34.3219 37.9053 34.2025 37.9501C34.083 37.9949 33.9636 38.0397 33.8441 38.0845V39.0699C33.8441 39.3387 33.7396 39.5776 33.5605 39.7567C33.3813 39.9359 33.1424 40.0404 32.8736 40.0404H30.1562C29.8875 40.0404 29.6486 39.9359 29.4694 39.7567C29.2902 39.5776 29.1857 39.3387 29.1857 39.0699V38.0845C29.0663 38.0397 28.9468 37.9949 28.8274 37.9501C28.7079 37.9053 28.5885 37.8456 28.469 37.8008L27.7822 38.4876C27.7822 38.4876 27.7524 38.5175 27.7374 38.5324C27.5583 38.6967 27.3194 38.7862 27.0954 38.7862C26.8416 38.7862 26.6027 38.6966 26.4086 38.5026L24.4975 36.5914C24.4975 36.5914 24.4676 36.5615 24.4527 36.5466C24.2884 36.3674 24.1988 36.1286 24.1988 35.9046C24.1988 35.6508 24.2884 35.4119 24.4825 35.2178L25.1693 34.531C25.1096 34.4115 25.0648 34.2921 25.02 34.1726C24.9752 34.0532 24.9304 33.9337 24.8857 33.8143H23.9002C23.6315 33.8143 23.3926 33.7098 23.2134 33.5306C23.2134 33.5306 23.1835 33.5007 23.1686 33.4858C23.0193 33.3066 22.9297 33.0827 22.9297 32.8438V30.1264C22.9297 29.8576 23.0342 29.6187 23.2134 29.4395C23.3926 29.2604 23.6315 29.1559 23.9002 29.1559H24.8857C24.9304 29.0364 24.9752 28.917 25.02 28.7975C25.0648 28.6781 25.1245 28.5586 25.1693 28.4392L24.4825 27.7524C24.4825 27.7524 24.4527 27.7225 24.4377 27.7076C24.2735 27.5284 24.1839 27.2895 24.1839 27.0655C24.1839 26.8117 24.2735 26.5579 24.4676 26.3787L26.3787 24.4676C26.5728 24.2735 26.8267 24.1839 27.0655 24.1839C27.3044 24.1839 27.5732 24.2735 27.7524 24.4676L28.4392 25.1544C28.5586 25.0947 28.6781 25.0499 28.7975 25.0051C28.917 24.9603 29.0364 24.9155 29.1559 24.8707V23.8853C29.1559 23.6165 29.2604 23.3776 29.4395 23.1985C29.6187 23.0193 29.8576 22.9148 30.1264 22.9148H30.1413ZM33.1872 29.8128C33.6202 30.2458 33.8889 30.843 33.8889 31.5C33.8889 32.157 33.6202 32.7542 33.1872 33.1872C32.7542 33.6202 32.157 33.8889 31.5 33.8889C30.843 33.8889 30.2458 33.6202 29.8128 33.1872C29.3798 32.7542 29.1111 32.157 29.1111 31.5C29.1111 30.843 29.3798 30.2458 29.8128 29.8128C30.2458 29.3798 30.843 29.1111 31.5 29.1111C32.157 29.1111 32.7542 29.3798 33.1872 29.8128ZM31.5 28.0211C32.4556 28.0211 33.3365 28.4093 33.9636 29.0364C34.5907 29.6635 34.9789 30.5295 34.9789 31.5C34.9789 32.4705 34.5907 33.3365 33.9636 33.9636C33.3365 34.5907 32.4705 34.9789 31.5 34.9789C30.5295 34.9789 29.6635 34.5907 29.0364 33.9636C28.4093 33.3365 28.0211 32.4705 28.0211 31.5C28.0211 30.5295 28.4093 29.6635 29.0364 29.0364C29.6635 28.4093 30.5295 28.0211 31.5 28.0211ZM19.1522 43.2356C18.8984 42.9818 18.5699 42.8325 18.1967 42.8325C17.8234 42.8325 17.48 42.9818 17.2411 43.2356C16.9873 43.4894 16.8379 43.8179 16.8379 44.1912C16.8379 44.5645 16.9873 44.9079 17.2411 45.1468C17.4949 45.4006 17.8234 45.5499 18.1967 45.5499C18.5699 45.5499 18.9133 45.4006 19.1522 45.1468C19.406 44.8929 19.5554 44.5645 19.5554 44.1912C19.5554 43.8179 19.406 43.4745 19.1522 43.2356ZM18.1817 41.7425C18.8536 41.7425 19.4658 42.0113 19.9137 42.4592C20.3616 42.9071 20.6304 43.5193 20.6304 44.1912C20.6304 44.8631 20.3616 45.4752 19.9137 45.9232C19.4658 46.3711 18.8536 46.6398 18.1817 46.6398C17.5098 46.6398 16.8977 46.3711 16.4497 45.9232C16.0018 45.4752 15.7331 44.8631 15.7331 44.1912C15.7331 43.5193 16.0018 42.9071 16.4497 42.4592C16.8977 42.0113 17.5098 41.7425 18.1817 41.7425ZM14.7028 49.8201C15.6883 50.5069 16.8827 50.91 18.1817 50.91C19.4807 50.91 20.6752 50.5069 21.6606 49.8201C21.3321 49.2826 20.8842 48.8347 20.3616 48.5062C19.7345 48.1031 18.988 47.8791 18.1817 47.8791C17.3755 47.8791 16.6289 48.118 16.0018 48.5062C15.4792 48.8496 15.0313 49.2975 14.7028 49.8201ZM22.4967 40.5033C23.6016 41.6082 24.2735 43.1311 24.2735 44.8183C24.2735 46.5055 23.6016 48.0135 22.4967 49.1184C22.0936 48.5062 21.5561 47.9687 20.9439 47.5805C20.1377 47.0728 19.197 46.7742 18.1817 46.7742C17.1664 46.7742 16.2109 47.0728 15.4195 47.5805C14.7924 47.9687 14.2698 48.5062 13.8667 49.1184C12.7768 48.0135 12.0899 46.4905 12.0899 44.8183C12.0899 43.146 12.7768 41.6082 13.8667 40.5033C14.9716 39.3984 16.4945 38.7265 18.1817 38.7265C19.8689 38.7265 21.3918 39.4133 22.4967 40.5033ZM18.1817 37.6366C20.1675 37.6366 21.9592 38.4428 23.2582 39.7418C24.5572 41.0408 25.3634 42.8325 25.3634 44.8183C25.3634 46.8041 24.5572 48.5958 23.2582 49.8948C21.9592 51.1937 20.1675 52 18.1817 52C16.1959 52 14.4042 51.1937 13.1052 49.8948C11.8063 48.5958 11 46.8041 11 44.8183C11 42.8325 11.8063 41.0408 13.1052 39.7418C14.4042 38.4428 16.1959 37.6366 18.1817 37.6366ZM45.7739 43.2356C45.52 42.9818 45.1916 42.8325 44.8183 42.8325C44.445 42.8325 44.1016 42.9818 43.8627 43.2356C43.6089 43.4894 43.4596 43.8179 43.4596 44.1912C43.4596 44.5645 43.6089 44.9079 43.8627 45.1468C44.1165 45.4006 44.445 45.5499 44.8183 45.5499C45.1916 45.5499 45.535 45.4006 45.7739 45.1468C46.0277 44.8929 46.177 44.5645 46.177 44.1912C46.177 43.8179 46.0277 43.4745 45.7739 43.2356ZM44.8183 41.7425C45.4902 41.7425 46.1023 42.0113 46.5503 42.4592C46.9982 42.9071 47.2669 43.5193 47.2669 44.1912C47.2669 44.8631 46.9982 45.4752 46.5503 45.9232C46.1023 46.3711 45.4902 46.6398 44.8183 46.6398C44.1464 46.6398 43.5342 46.3711 43.0863 45.9232C42.6384 45.4752 42.3696 44.8631 42.3696 44.1912C42.3696 43.5193 42.6384 42.9071 43.0863 42.4592C43.5342 42.0113 44.1464 41.7425 44.8183 41.7425ZM41.3394 49.8201C42.3248 50.5069 43.5193 50.91 44.8183 50.91C46.1173 50.91 47.3117 50.5069 48.2972 49.8201C47.9687 49.2826 47.5208 48.8347 46.9982 48.5062C46.3711 48.1031 45.6245 47.8791 44.8183 47.8791C44.012 47.8791 43.2655 48.118 42.6384 48.5062C42.1158 48.8496 41.6679 49.2975 41.3394 49.8201ZM49.1184 40.5033C50.2232 41.6082 50.8951 43.1311 50.8951 44.8183C50.8951 46.5055 50.2232 48.0135 49.1184 49.1184C48.7152 48.5062 48.1777 47.9687 47.5655 47.5805C46.7593 47.0728 45.8186 46.7742 44.8033 46.7742C43.7881 46.7742 42.8325 47.0728 42.0412 47.5805C41.4141 47.9687 40.8915 48.5062 40.4883 49.1184C39.3984 48.0135 38.7116 46.4905 38.7116 44.8183C38.7116 43.146 39.3984 41.6082 40.4883 40.5033C41.5932 39.3984 43.1162 38.7265 44.8033 38.7265C46.4905 38.7265 48.0135 39.4133 49.1184 40.5033ZM44.8183 37.6366C46.8041 37.6366 48.5958 38.4428 49.8948 39.7418C51.1937 41.0408 52 42.8325 52 44.8183C52 46.8041 51.1937 48.5958 49.8948 49.8948C48.5958 51.1937 46.8041 52 44.8183 52C42.8325 52 41.0408 51.1937 39.7418 49.8948C38.4428 48.5958 37.6366 46.8041 37.6366 44.8183C37.6366 42.8325 38.4428 41.0408 39.7418 39.7418C41.0408 38.4428 42.8325 37.6366 44.8183 37.6366ZM45.7739 16.5991C45.52 16.3452 45.1916 16.1959 44.8183 16.1959C44.445 16.1959 44.1016 16.3452 43.8627 16.5991C43.6089 16.8529 43.4596 17.1814 43.4596 17.5546C43.4596 17.9279 43.6089 18.2713 43.8627 18.5102C44.1165 18.764 44.445 18.9133 44.8183 18.9133C45.1916 18.9133 45.535 18.764 45.7739 18.5102C46.0277 18.2564 46.177 17.9279 46.177 17.5546C46.177 17.1814 46.0277 16.8379 45.7739 16.5991ZM44.8183 15.1209C45.4902 15.1209 46.1023 15.3897 46.5503 15.8376C46.9982 16.2855 47.2669 16.8977 47.2669 17.5696C47.2669 18.2414 46.9982 18.8536 46.5503 19.3015C46.1023 19.7495 45.4902 20.0182 44.8183 20.0182C44.1464 20.0182 43.5342 19.7495 43.0863 19.3015C42.6384 18.8536 42.3696 18.2414 42.3696 17.5696C42.3696 16.8977 42.6384 16.2855 43.0863 15.8376C43.5342 15.3897 44.1464 15.1209 44.8183 15.1209ZM41.3394 23.1835C42.3248 23.8704 43.5193 24.2735 44.8183 24.2735C46.1173 24.2735 47.3117 23.8704 48.2972 23.1835C47.9687 22.646 47.5208 22.1981 46.9982 21.8696C46.3711 21.4665 45.6245 21.2425 44.8183 21.2425C44.012 21.2425 43.2655 21.4814 42.6384 21.8696C42.1158 22.213 41.6679 22.661 41.3394 23.1835ZM49.1184 13.8816C50.2232 14.9865 50.8951 16.5095 50.8951 18.1967C50.8951 19.8838 50.2232 21.3918 49.1184 22.4967C48.7152 21.8846 48.1777 21.3471 47.5655 20.9588C46.7593 20.4512 45.8186 20.1526 44.8033 20.1526C43.7881 20.1526 42.8325 20.4512 42.0412 20.9588C41.4141 21.3471 40.8915 21.8846 40.4883 22.4967C39.3984 21.3918 38.7116 19.8689 38.7116 18.1967C38.7116 16.5244 39.3984 14.9865 40.4883 13.8816C41.5932 12.7768 43.1162 12.1049 44.8033 12.1049C46.4905 12.1049 48.0135 12.7917 49.1184 13.8816ZM44.8183 11C46.8041 11 48.5958 11.8063 49.8948 13.1052C51.1937 14.4042 52 16.1959 52 18.1817C52 20.1675 51.1937 21.9592 49.8948 23.2582C48.5958 24.5572 46.8041 25.3634 44.8183 25.3634C42.8325 25.3634 41.0408 24.5572 39.7418 23.2582C38.4428 21.9592 37.6366 20.1675 37.6366 18.1817C37.6366 16.1959 38.4428 14.4042 39.7418 13.1052C41.0408 11.8063 42.8325 11 44.8183 11ZM19.1522 16.5991C18.8984 16.3452 18.5699 16.1959 18.1967 16.1959C17.8234 16.1959 17.48 16.3452 17.2411 16.5991C16.9873 16.8529 16.8379 17.1814 16.8379 17.5546C16.8379 17.9279 16.9873 18.2713 17.2411 18.5102C17.4949 18.764 17.8234 18.9133 18.1967 18.9133C18.5699 18.9133 18.9133 18.764 19.1522 18.5102C19.406 18.2564 19.5554 17.9279 19.5554 17.5546C19.5554 17.1814 19.406 16.8379 19.1522 16.5991ZM18.1817 15.1209C18.8536 15.1209 19.4658 15.3897 19.9137 15.8376C20.3616 16.2855 20.6304 16.8977 20.6304 17.5696C20.6304 18.2414 20.3616 18.8536 19.9137 19.3015C19.4658 19.7495 18.8536 20.0182 18.1817 20.0182C17.5098 20.0182 16.8977 19.7495 16.4497 19.3015C16.0018 18.8536 15.7331 18.2414 15.7331 17.5696C15.7331 16.8977 16.0018 16.2855 16.4497 15.8376C16.8977 15.3897 17.5098 15.1209 18.1817 15.1209ZM14.7028 23.1835C15.6883 23.8704 16.8827 24.2735 18.1817 24.2735C19.4807 24.2735 20.6752 23.8704 21.6606 23.1835C21.3321 22.646 20.8842 22.1981 20.3616 21.8696C19.7345 21.4665 18.988 21.2425 18.1817 21.2425C17.3755 21.2425 16.6289 21.4814 16.0018 21.8696C15.4792 22.213 15.0313 22.661 14.7028 23.1835ZM22.4967 13.8816C23.6016 14.9865 24.2735 16.5095 24.2735 18.1967C24.2735 19.8838 23.6016 21.3918 22.4967 22.4967C22.0936 21.8846 21.5561 21.3471 20.9439 20.9588C20.1377 20.4512 19.197 20.1526 18.1817 20.1526C17.1664 20.1526 16.2109 20.4512 15.4195 20.9588C14.7924 21.3471 14.2698 21.8846 13.8667 22.4967C12.7768 21.3918 12.0899 19.8689 12.0899 18.1967C12.0899 16.5244 12.7768 14.9865 13.8667 13.8816C14.9716 12.7768 16.4945 12.1049 18.1817 12.1049C19.8689 12.1049 21.3918 12.7917 22.4967 13.8816ZM18.1817 11C20.1675 11 21.9592 11.8063 23.2582 13.1052C24.5572 14.4042 25.3634 16.1959 25.3634 18.1817C25.3634 20.1675 24.5572 21.9592 23.2582 23.2582C21.9592 24.5572 20.1675 25.3634 18.1817 25.3634C16.1959 25.3634 14.4042 24.5572 13.1052 23.2582C11.8063 21.9592 11 20.1675 11 18.1817C11 16.1959 11.8063 14.4042 13.1052 13.1052C14.4042 11.8063 16.1959 11 18.1817 11ZM30.0965 16.4348C30.3354 16.614 30.3802 16.9574 30.1861 17.1963C30.0069 17.4352 29.6635 17.48 29.4246 17.2859L27.6479 15.9122C27.4836 15.8525 27.3642 15.7032 27.3194 15.524C27.2746 15.315 27.3492 15.106 27.5135 14.9716L28.902 13.1948C29.0812 12.9559 29.4246 12.9111 29.6635 13.1052C29.9024 13.2993 29.9472 13.6278 29.7531 13.8667L29.1708 14.6282C29.3052 14.6133 29.4545 14.5983 29.5889 14.5834C30.216 14.5087 30.843 14.4789 31.4851 14.4789C32.1271 14.4789 32.7542 14.5087 33.3813 14.5834C34.0084 14.658 34.6355 14.7626 35.2476 14.8969C35.5462 14.9567 35.7254 15.2553 35.6657 15.5539C35.606 15.8525 35.3074 16.0317 35.0087 15.972C34.4414 15.8376 33.8591 15.748 33.2618 15.6733C32.6795 15.6136 32.0972 15.5688 31.4851 15.5688C30.8729 15.5688 30.2906 15.5987 29.7083 15.6733C29.5291 15.6883 29.35 15.7181 29.1708 15.748L30.0816 16.4497L30.0965 16.4348ZM16.4348 32.9035C16.614 32.6646 16.9574 32.6198 17.1963 32.8139C17.4352 32.9931 17.48 33.3365 17.2859 33.5754L15.9122 35.3521C15.8525 35.5164 15.7032 35.6358 15.524 35.6806C15.315 35.7254 15.106 35.6508 14.9716 35.4865L13.1948 34.098C12.9559 33.9188 12.9111 33.5754 13.1052 33.3365C13.2993 33.0976 13.6278 33.0528 13.8667 33.2469L14.6282 33.8292C14.6133 33.6948 14.5983 33.5455 14.5834 33.4111C14.5087 32.784 14.4789 32.157 14.4789 31.5149C14.4789 30.8729 14.5087 30.2458 14.5834 29.6187C14.658 28.9916 14.7626 28.3645 14.8969 27.7524C14.9567 27.4538 15.2553 27.2746 15.5539 27.3343C15.8525 27.394 16.0317 27.6926 15.972 27.9913C15.8376 28.5586 15.748 29.1409 15.6733 29.7382C15.6136 30.3205 15.5688 30.9028 15.5688 31.5149C15.5688 32.1271 15.5987 32.7094 15.6733 33.2917C15.6883 33.4709 15.7181 33.65 15.748 33.8292L16.4497 32.9184L16.4348 32.9035ZM32.9035 46.5652C32.6646 46.386 32.6198 46.0426 32.8139 45.8037C32.9931 45.5648 33.3365 45.52 33.5754 45.7141L35.3521 47.0878C35.5164 47.1475 35.6358 47.2968 35.6806 47.476C35.7254 47.685 35.6508 47.894 35.4865 48.0284L34.098 49.8052C33.9188 50.0441 33.5754 50.0889 33.3365 49.8948C33.0976 49.7007 33.0528 49.3722 33.2469 49.1333L33.8292 48.3718C33.6948 48.3867 33.5455 48.4017 33.4111 48.4166C32.784 48.4913 32.157 48.5211 31.5149 48.5211C30.8729 48.5211 30.2458 48.4913 29.6187 48.4166C28.9916 48.342 28.3645 48.2374 27.7524 48.1031C27.4538 48.0433 27.2746 47.7447 27.3343 47.4461C27.394 47.1475 27.6926 46.9683 27.9913 47.028C28.5586 47.1624 29.1409 47.252 29.7382 47.3267C30.3205 47.3864 30.9028 47.4312 31.5149 47.4312C32.1271 47.4312 32.7094 47.4013 33.2917 47.3267C33.4709 47.3117 33.65 47.2819 33.8292 47.252L32.9184 46.5503L32.9035 46.5652ZM46.5652 30.0965C46.386 30.3354 46.0426 30.3802 45.8037 30.1861C45.5648 30.0069 45.52 29.6635 45.7141 29.4246L47.0878 27.6479C47.1475 27.4836 47.2968 27.3642 47.476 27.3194C47.685 27.2746 47.894 27.3492 48.0284 27.5135L49.8052 28.902C50.0441 29.0812 50.0889 29.4246 49.8948 29.6635C49.7007 29.9024 49.3722 29.9472 49.1333 29.7531L48.3718 29.1708C48.3867 29.3052 48.4017 29.4545 48.4166 29.5889C48.4913 30.216 48.5211 30.843 48.5211 31.4851C48.5211 32.1271 48.4913 32.7542 48.4166 33.3813C48.342 34.0084 48.2374 34.6355 48.1031 35.2476C48.0433 35.5462 47.7447 35.7254 47.4461 35.6657C47.1475 35.606 46.9683 35.3074 47.028 35.0087C47.1624 34.4414 47.252 33.8591 47.3267 33.2618C47.3864 32.6795 47.4312 32.0972 47.4312 31.4851C47.4312 30.8729 47.4013 30.2906 47.3267 29.7083C47.3117 29.5291 47.2819 29.35 47.252 29.1708L46.5503 30.0816L46.5652 30.0965Z" fill="white"/>
</svg>
