<svg width="64" height="64" viewBox="0 0 64 64" fill="none" xmlns="http://www.w3.org/2000/svg">
<g clip-path="url(#clip0_58_1610)">
<path fill-rule="evenodd" clip-rule="evenodd" d="M19.1937 7C25.3708 7 30.3875 12.04 30.3875 18.2457C30.3875 24.4514 25.3708 29.4914 19.1937 29.4914C13.0167 29.4914 8 24.4514 8 18.2457C8 12.04 13.0167 7 19.1937 7ZM19.1937 10.2229C14.7743 10.2229 11.1909 13.8229 11.1909 18.2457C11.1909 22.6686 14.7743 26.2857 19.1937 26.2857C23.6132 26.2857 27.1966 22.6857 27.1966 18.2457C27.1966 13.8057 23.6132 10.2229 19.1937 10.2229ZM15.2009 14.2343C16.0882 14.2343 16.8048 14.9543 16.8048 15.8457C16.8048 16.7371 16.0882 17.4571 15.2009 17.4571C14.3135 17.4571 13.5969 16.7371 13.5969 15.8457C13.5969 14.9543 14.3135 14.2343 15.2009 14.2343ZM23.2037 14.2343C24.091 14.2343 24.8077 14.9543 24.8077 15.8457C24.8077 16.7371 24.091 17.4571 23.2037 17.4571C22.3164 17.4571 21.5997 16.7371 21.5997 15.8457C21.5997 14.9543 22.3164 14.2343 23.2037 14.2343ZM14.9449 21.88C14.2794 21.2971 14.2112 20.2857 14.7913 19.6171C15.3715 18.9486 16.3782 18.88 17.0437 19.4629C17.7775 20.0971 18.4771 20.4743 19.1937 20.4743C19.9104 20.4743 20.61 20.1143 21.3267 19.4629C21.9922 18.88 22.9989 18.9314 23.5791 19.6C24.1593 20.2686 24.1081 21.28 23.4426 21.8629C22.0263 23.1143 20.593 23.68 19.1767 23.68C17.7775 23.68 16.3441 23.1143 14.9278 21.88H14.9449ZM44.7892 7C50.9662 7 55.9829 12.04 55.9829 18.2457C55.9829 24.4514 50.9662 29.4914 44.7892 29.4914C38.6122 29.4914 33.5955 24.4514 33.5955 18.2457C33.5955 12.04 38.6122 7 44.7892 7ZM44.7892 10.2057C40.3697 10.2057 36.7864 13.8057 36.7864 18.2457C36.7864 22.6857 40.3697 26.2857 44.7892 26.2857C49.2087 26.2857 52.792 22.6857 52.792 18.2457C52.792 13.8057 49.2087 10.2057 44.7892 10.2057ZM40.7963 14.2343C41.6836 14.2343 42.4003 14.9543 42.4003 15.8457C42.4003 16.7371 41.6836 17.4571 40.7963 17.4571C39.909 17.4571 39.1923 16.7371 39.1923 15.8457C39.1923 14.9543 39.909 14.2343 40.7963 14.2343ZM48.7991 14.2343C49.6865 14.2343 50.4031 14.9543 50.4031 15.8457C50.4031 16.7371 49.6865 17.4571 48.7991 17.4571C47.9118 17.4571 47.1952 16.7371 47.1952 15.8457C47.1952 14.9543 47.9118 14.2343 48.7991 14.2343ZM42.6392 23.2857C41.9737 23.8686 40.9669 23.8 40.3868 23.1314C39.8066 22.4629 39.8749 21.4514 40.5404 20.8686C41.9396 19.6343 43.3729 19.0686 44.7892 19.0686C46.2055 19.0686 47.6388 19.6171 49.0551 20.8857C49.7206 21.4686 49.7718 22.4971 49.1916 23.1486C48.6115 23.8171 47.5876 23.8857 46.9392 23.2857C46.2225 22.6514 45.5229 22.2743 44.8063 22.2743C44.0725 22.2743 43.3729 22.6514 42.6562 23.2857H42.6392ZM23.9886 32.7143C25.2684 32.7143 26.4799 33.2286 27.3843 34.12C28.2887 35.0286 28.7835 36.2457 28.7835 37.5314V47.1657C28.7835 48.4514 28.2716 49.6686 27.3843 50.5771C26.4799 51.4857 25.2684 51.9829 23.9886 51.9829H14.3989C13.1191 51.9829 11.9076 51.4686 11.0032 50.5771C10.0988 49.6686 9.60398 48.4514 9.60398 47.1657V37.5314C9.60398 36.2457 10.1159 35.0286 11.0032 34.12C11.9076 33.2114 13.1191 32.7143 14.3989 32.7143H23.9886ZM23.9886 35.9371H14.3989C13.9723 35.9371 13.5627 36.1086 13.2727 36.4C12.9655 36.7086 12.8119 37.1029 12.8119 37.5314V47.1657C12.8119 47.5943 12.9826 48.0057 13.2727 48.2971C13.5798 48.6057 13.9723 48.76 14.3989 48.76H23.9886C24.4152 48.76 24.8247 48.5886 25.1148 48.2971C25.422 47.9886 25.5755 47.5943 25.5755 47.1657V37.5314C25.5755 37.1029 25.4049 36.6914 25.1148 36.4C24.8077 36.0914 24.4152 35.9371 23.9886 35.9371ZM15.1155 44.4914C14.3818 43.9943 14.177 43 14.6719 42.2629C15.1667 41.5257 16.1564 41.32 16.8902 41.8171L18.2041 42.6914L21.2755 39.6057C21.9069 38.9714 22.9136 38.9714 23.545 39.6057C24.1763 40.24 24.1763 41.2514 23.545 41.8857L19.5521 45.8971C19.006 46.4457 18.1699 46.5143 17.5386 46.1029L15.1326 44.4914H15.1155ZM49.5841 32.7143C50.8638 32.7143 52.0754 33.2286 52.9797 34.12C53.8841 35.0286 54.379 36.2457 54.379 37.5314V47.1657C54.379 48.4514 53.8671 49.6686 52.9797 50.5771C52.0754 51.4857 50.8638 51.9829 49.5841 51.9829H39.9943C38.7145 51.9829 37.503 51.4686 36.5987 50.5771C35.6943 49.6686 35.1994 48.4514 35.1994 47.1657V37.5314C35.1994 36.2457 35.7113 35.0286 36.5987 34.12C37.503 33.2114 38.7145 32.7143 39.9943 32.7143H49.5841ZM49.5841 35.9371H39.9943C39.5677 35.9371 39.1582 36.1086 38.8681 36.4C38.578 36.7086 38.4074 37.1029 38.4074 37.5314V47.1657C38.4074 47.5943 38.578 48.0057 38.8681 48.2971C39.1753 48.6057 39.5677 48.76 39.9943 48.76H49.5841C50.0107 48.76 50.4202 48.5886 50.7103 48.2971C51.0174 47.9886 51.171 47.5943 51.171 47.1657V37.5314C51.171 37.1029 51.0004 36.6914 50.7103 36.4C50.4031 36.0914 50.0107 35.9371 49.5841 35.9371Z" fill="white"/>
</g>
<defs>
<clipPath id="clip0_58_1610">
<rect width="48" height="45" fill="white" transform="translate(8 7)"/>
</clipPath>
</defs>
</svg>
