<svg width="64" height="64" viewBox="0 0 64 64" fill="none" xmlns="http://www.w3.org/2000/svg">
<g clip-path="url(#clip0_58_1618)">
<path fill-rule="evenodd" clip-rule="evenodd" d="M25.6758 26.1031L29.6905 29.5478L29.9406 29.2098M15.7642 13H38.1674L45.2226 19.9675V34.0585H40.4182L40.5367 34.8514H40.1023C39.4047 34.2275 38.786 33.6165 38.0357 33.0576H27.6371C27.2027 33.0576 26.7815 33.2396 26.4788 33.5385L25.1625 34.8384H20.4633L20.5818 34.0455H15.7774V13H15.7642ZM48 35.0984V50.1513H43.7352L43.4062 47.8505C43.4062 47.8505 43.3667 47.8505 43.3272 47.8505H42.3531C42.5111 48.1755 42.5901 48.5395 42.5901 48.8904C42.5901 49.5014 42.3531 50.1123 41.8793 50.5673L41.853 50.5933C41.3923 51.0353 40.7999 51.2693 40.1944 51.2693C39.7469 51.2693 39.2862 51.1393 38.8913 50.8923C38.8255 51.3733 38.5886 51.8282 38.22 52.1922C37.7593 52.6602 37.1407 52.8811 36.5352 52.8811C36.0876 52.8811 35.6401 52.7512 35.232 52.5042C35.1531 52.9721 34.9293 53.4271 34.5607 53.7911C34.1 54.259 33.4814 54.48 32.8759 54.48C32.2704 54.48 31.6386 54.2461 31.1647 53.7911L30.4408 53.0761C30.3618 53.5311 30.138 53.9601 29.7958 54.298L29.7695 54.324C29.3088 54.753 28.7164 54.987 28.1109 54.987C27.5055 54.987 26.8868 54.753 26.4129 54.298L26.3866 54.272L19.8973 47.8635H17.686C17.686 47.8635 17.6333 47.8635 17.607 47.8635L17.2779 50.1643H13V35.1114H19.3445L19.2392 35.9174H25.5968L27.2422 34.2795C27.3343 34.1885 27.4791 34.1235 27.6239 34.1235H37.5092C37.6408 34.1235 37.7593 34.1625 37.8646 34.2535L39.6942 35.9044H41.7477L41.6423 35.0984H48ZM17.7255 46.8106H20.0816C20.2132 46.8106 20.358 46.8626 20.4633 46.9666L27.1106 53.5311L27.1369 53.5571C27.4002 53.8171 27.7292 53.9341 28.0846 53.9341C28.44 53.9341 28.7559 53.8171 29.0192 53.5701C29.0192 53.5701 29.0192 53.5701 29.0455 53.5441C29.3088 53.2841 29.4272 52.9461 29.4272 52.6082C29.4272 52.2702 29.2956 51.9322 29.0455 51.6722L26.2681 48.9294C26.0575 48.7214 26.0575 48.3965 26.2681 48.1885C26.4788 47.9935 26.8078 47.9935 27.0184 48.1885L29.7958 50.9313L31.9282 53.0371C32.1914 53.2841 32.5337 53.4141 32.8759 53.4141C33.2181 53.4141 33.5735 53.2841 33.8236 53.0371C34.0869 52.7772 34.2053 52.4392 34.2053 52.1012C34.2053 51.7632 34.0737 51.4123 33.8236 51.1653L29.6378 47.0186C29.4272 46.8106 29.4272 46.4856 29.6378 46.2776C29.8353 46.0696 30.1775 46.0696 30.375 46.2776L35.5874 51.4253C35.8507 51.6852 36.1929 51.8022 36.5352 51.8022C36.8774 51.8022 37.2328 51.6722 37.4829 51.4253C37.733 51.1653 37.8646 50.8403 37.8646 50.4893C37.8646 50.1383 37.733 49.8004 37.4697 49.5404L32.968 45.0947C32.7574 44.8867 32.7574 44.5617 32.968 44.3538C33.1786 44.1458 33.5077 44.1458 33.7183 44.3538L39.2467 49.8134C39.4968 50.0733 39.839 50.1903 40.1944 50.1903C40.5498 50.1903 40.8657 50.0604 41.129 49.8264C41.129 49.8264 41.129 49.8004 41.1553 49.8004C41.4186 49.5404 41.537 49.2024 41.537 48.8644C41.537 48.5265 41.4054 48.1755 41.1553 47.9285L40.9052 47.6815V47.6555L34.2712 41.104H28.8612L25.9127 44.0158C25.3204 44.6007 24.557 44.8997 23.7804 44.8997C23.0038 44.8997 22.2272 44.6137 21.648 44.0158C21.0557 43.4308 20.7661 42.6769 20.7661 41.9099C20.7661 41.143 21.0557 40.376 21.648 39.8041L24.5833 36.9053H19.226H19.147L17.7781 46.7716L17.7255 46.8106ZM15.1324 46.0436C14.9613 45.8746 14.7243 45.7707 14.4611 45.7707C14.1978 45.7707 13.9741 45.8746 13.8029 46.0436C13.6187 46.2126 13.5265 46.4466 13.5265 46.6936C13.5265 46.9406 13.6318 47.1876 13.8029 47.3565C13.9741 47.5255 14.1978 47.6295 14.4611 47.6295C14.7243 47.6295 14.9481 47.5255 15.1324 47.3565C15.3035 47.1876 15.4088 46.9536 15.4088 46.6936C15.4088 46.4596 15.3167 46.2256 15.1587 46.0566L15.1324 46.0306V46.0436ZM41.4844 46.8106H43.2614L41.8924 36.9443H39.4836C39.3389 36.9443 39.2072 36.8793 39.1019 36.7753L37.3118 35.1504H27.8608L22.3588 40.584C21.9771 40.961 21.7796 41.455 21.7796 41.9489C21.7796 42.4429 21.9771 42.9499 22.3588 43.3268C22.7405 43.7038 23.2407 43.8858 23.7409 43.8858C24.2411 43.8858 24.7413 43.7038 25.123 43.3268L28.2294 40.2591C28.3347 40.1551 28.4663 40.1031 28.6111 40.1031H34.6792C35.0083 40.0381 35.2847 39.8951 35.5085 39.6741C35.7717 39.4011 35.9428 39.0501 35.9428 38.6472C35.9428 38.3612 36.1798 38.1272 36.4825 38.1272C36.7853 38.1272 37.009 38.3612 37.009 38.6472C37.009 39.3361 36.7326 39.9601 36.2719 40.415C36.0613 40.623 35.8112 40.792 35.5348 40.909L41.4976 46.7976L41.4844 46.8106ZM45.8676 46.0436C46.0387 45.8746 46.2625 45.7707 46.5258 45.7707C46.789 45.7707 47.0128 45.8746 47.1839 46.0436C47.355 46.2126 47.4603 46.4466 47.4603 46.6936C47.4603 46.9406 47.355 47.1876 47.1839 47.3565C47.0128 47.5255 46.789 47.6295 46.5258 47.6295C46.2625 47.6295 46.0387 47.5255 45.8676 47.3565C45.6833 47.1876 45.5912 46.9536 45.5912 46.6936C45.5912 46.4596 45.6833 46.2256 45.8413 46.0566L45.8676 46.0306V46.0436ZM45.2226 51.2043V53.1671H38.7202C38.7992 53.0891 38.8913 53.0241 38.9703 52.9461C39.1809 52.7252 39.352 52.5042 39.51 52.2572C39.7337 52.2962 39.9575 52.3222 40.1944 52.3222C41.0895 52.3222 41.9319 51.9842 42.5901 51.3863L42.6559 51.3213C42.6559 51.3213 42.7612 51.2173 42.8138 51.1653V51.2043H45.2358H45.2226ZM23.7146 53.1671H15.7642V51.2043H18.1862L18.5021 48.9034H19.4235L23.7146 53.1541V53.1671ZM43.7221 19.9675L38.1674 14.4819V19.9675H43.7221ZM30.4934 18.0826C32.1388 18.0826 33.6525 18.6156 34.8766 19.5255L35.4163 18.8106C35.6006 18.5766 35.9297 18.5376 36.1666 18.7196C36.4035 18.8886 36.443 19.2266 36.2587 19.4475L36.1666 19.5645L34.4818 21.7224L29.6115 27.9879L26.8078 25.5831L26.0181 24.9071C25.7943 24.7252 25.4652 24.7382 25.2678 24.9591C25.0703 25.1801 25.0967 25.5051 25.3204 25.7001L25.768 26.0901L29.3219 29.1448C29.493 29.2878 29.7431 29.3138 29.9274 29.2098C29.9801 29.1838 30.0327 29.1448 30.0722 29.0928C30.0985 29.0669 30.0985 29.0539 30.1117 29.0409L36.3509 21.0204C37.2065 22.2033 37.7198 23.6462 37.7198 25.2061C37.7198 29.1708 34.4686 32.3686 30.4671 32.3686C26.4656 32.3686 23.2144 29.1708 23.2144 25.2061C23.2144 21.2414 26.4656 18.0566 30.4671 18.0566L30.4934 18.0826Z" fill="white"/>
</g>
<defs>
<clipPath id="clip0_58_1618">
<rect width="35" height="42" fill="white" transform="translate(13 13)"/>
</clipPath>
</defs>
</svg>
