<svg width="239" height="36" viewBox="0 0 239 36" fill="none" xmlns="http://www.w3.org/2000/svg">
<g clip-path="url(#clip0_19612_129)">
<path d="M66.8616 16.6973C65.5166 16.2643 63.8568 15.9396 61.882 15.7322C60.4156 15.5518 59.354 15.394 58.6973 15.2587C58.0406 15.1234 57.4963 14.8844 57.0599 14.5416C56.6236 14.1989 56.4077 13.6803 56.4077 12.9903C56.4077 12.0613 56.8395 11.3262 57.7077 10.7895C58.5758 10.2529 59.7094 9.98228 61.1173 9.98228C62.5253 9.98228 63.6858 10.3205 64.617 10.9925C65.5481 11.6644 66.0654 12.5303 66.1868 13.5765H70.8965C70.7481 11.2405 69.7674 9.42758 67.9592 8.1378C66.1509 6.84802 63.7983 6.20312 60.8969 6.20312C59.1336 6.20312 57.5547 6.50528 56.1648 7.10056C54.7748 7.70036 53.6818 8.54818 52.8901 9.63954C52.0984 10.7354 51.7025 11.9846 51.7025 13.3916C51.7025 14.8889 52.0984 16.0794 52.8901 16.9633C53.6818 17.8472 54.7299 18.4921 56.0298 18.898C57.3298 19.3039 58.9807 19.6241 60.9869 19.8631C62.4533 20.0435 63.5374 20.2149 64.2391 20.3817C64.9408 20.5486 65.5031 20.8237 65.9215 21.2115C66.3398 21.5993 66.5512 22.1856 66.5512 22.9658C66.5512 23.8948 66.0969 24.6344 65.1837 25.1891C64.2706 25.7438 63.0831 26.0189 61.6211 26.0189C59.9748 26.0189 58.6388 25.6355 57.6087 24.8734C56.5786 24.1113 56.0163 23.1281 55.9264 21.9285H51.2617C51.3202 24.3864 52.3008 26.312 54.1991 27.7055C56.0973 29.099 58.5848 29.7935 61.6661 29.7935C63.4879 29.7935 65.1343 29.5004 66.5962 28.9186C68.0626 28.3324 69.2142 27.4936 70.0508 26.4022C70.8875 25.3063 71.3058 24.0436 71.3058 22.605C71.3058 20.986 70.901 19.7053 70.0958 18.7627C69.2906 17.8202 68.2111 17.1302 66.8661 16.6973H66.8616Z" fill="white"/>
<path d="M90.8948 7.72979C89.118 6.74216 87.0759 6.24609 84.7728 6.24609C82.4697 6.24609 80.432 6.74216 78.6507 7.72979C76.8694 8.71743 75.4974 10.1064 74.5258 11.8878C73.5542 13.6691 73.0684 15.7165 73.0684 18.0255C73.0684 20.3345 73.5542 22.4225 74.5258 24.2083C75.4974 25.9942 76.8739 27.3697 78.6507 28.3438C80.4275 29.3179 82.4697 29.8049 84.7728 29.8049C87.0759 29.8049 89.1136 29.3179 90.8948 28.3438C92.6761 27.3697 94.0481 25.9897 95.0197 24.2083C95.9913 22.427 96.4771 20.3661 96.4771 18.0255C96.4771 15.685 95.9913 13.6736 95.0197 11.8878C94.0481 10.1019 92.6717 8.71743 90.8948 7.72979ZM89.6848 23.5319C88.4433 24.957 86.806 25.665 84.7728 25.665C82.7396 25.665 81.1112 24.9524 79.8832 23.5319C78.6552 22.1068 78.0434 20.2713 78.0434 18.0255C78.0434 15.7797 78.6552 13.9442 79.8832 12.5191C81.1067 11.0941 82.7396 10.386 84.7728 10.386C86.806 10.386 88.4433 11.0986 89.6848 12.5191C90.9263 13.9442 91.5471 15.7797 91.5471 18.0255C91.5471 20.2713 90.9263 22.1068 89.6848 23.5319Z" fill="white"/>
<path d="M115.173 17.9343C115.173 20.3019 114.652 22.1689 113.604 23.5308C112.555 24.8928 111.107 25.5782 109.254 25.5782C107.4 25.5782 106.159 24.992 105.264 23.824C104.369 22.6559 103.919 20.9468 103.919 18.7009V6.51562H99.0742V19.1925C99.0742 22.9085 99.9109 25.6053 101.584 27.2829C103.258 28.9605 105.439 29.7994 108.129 29.7994C111.12 29.7994 113.482 28.7351 115.214 26.6065L115.754 29.5288H120.013V6.51562H115.169V17.9343H115.173Z" fill="white"/>
<path d="M149.616 10.3815C151.051 10.3815 152.261 10.7694 153.246 11.5495C154.231 12.3297 154.893 13.376 155.221 14.6973H160.2C159.751 12.0907 158.617 10.0298 156.791 8.51449C154.969 6.99922 152.621 6.24609 149.751 6.24609C147.448 6.24609 145.424 6.73314 143.674 7.70725C141.924 8.68135 140.575 10.0523 139.617 11.8201C138.658 13.5879 138.182 15.6399 138.182 17.9804C138.182 20.321 138.654 22.3864 139.594 24.1858C140.534 25.9852 141.875 27.3697 143.607 28.3438C145.338 29.3179 147.345 29.8049 149.616 29.8049C152.517 29.8049 154.893 29.0473 156.746 27.5365C158.599 26.0213 159.751 23.9332 160.2 21.2635H155.266C154.969 22.6119 154.326 23.6852 153.336 24.4789C152.351 25.2726 151.11 25.6695 149.616 25.6695C147.673 25.6695 146.112 24.957 144.929 23.5364C143.75 22.1113 143.157 20.2623 143.157 17.9849C143.157 15.7075 143.746 13.9081 144.929 12.5011C146.108 11.0941 147.673 10.3905 149.616 10.3905V10.3815Z" fill="white"/>
<path d="M178.98 7.5945C177.293 6.69707 175.341 6.24609 173.128 6.24609C170.914 6.24609 169.012 6.73314 167.32 7.70725C165.629 8.68135 164.315 10.0613 163.375 11.8427C162.435 13.624 161.963 15.703 161.963 18.0706C161.963 20.4382 162.449 22.4631 163.42 24.2309C164.392 25.9987 165.768 27.3697 167.545 28.3438C169.322 29.3179 171.409 29.8049 173.802 29.8049C176.551 29.8049 178.845 29.0563 180.685 27.5591C182.524 26.0618 183.653 24.1407 184.072 21.8047H179.227C178.899 23.0944 178.224 24.0911 177.207 24.7946C176.191 25.4981 174.936 25.8499 173.442 25.8499C171.558 25.8499 170.051 25.2636 168.913 24.0956C167.775 22.9276 167.149 21.3402 167.028 19.3288V19.0582H184.337C184.427 18.4269 184.472 17.8135 184.472 17.2138C184.441 14.995 183.941 13.0603 182.97 11.4142C181.998 9.76368 180.667 8.49194 178.98 7.5945ZM167.212 15.5046C167.392 13.8856 168.058 12.5913 169.21 11.6172C170.361 10.6431 171.729 10.156 173.312 10.156C175.017 10.156 176.429 10.6295 177.549 11.5721C178.669 12.5146 179.335 13.8269 179.546 15.5046H167.217H167.212Z" fill="white"/>
<path d="M217.773 7.5945C216.086 6.69707 214.134 6.24609 211.92 6.24609C209.707 6.24609 207.805 6.73314 206.113 7.70725C204.422 8.68135 203.108 10.0613 202.168 11.8427C201.228 13.624 200.756 15.703 200.756 18.0706C200.756 20.4382 201.242 22.4631 202.213 24.2309C203.185 25.9987 204.561 27.3697 206.338 28.3438C208.115 29.3179 210.202 29.8049 212.595 29.8049C215.344 29.8049 217.638 29.0563 219.478 27.5591C221.317 26.0618 222.446 24.1407 222.865 21.8047H218.02C217.692 23.0944 217.017 24.0911 216 24.7946C214.984 25.4981 213.729 25.8499 212.235 25.8499C210.351 25.8499 208.844 25.2636 207.706 24.0956C206.568 22.9276 205.942 21.3402 205.821 19.3288V19.0582H223.13C223.22 18.4269 223.265 17.8135 223.265 17.2138C223.234 14.995 222.734 13.0603 221.763 11.4142C220.791 9.76368 219.46 8.49194 217.773 7.5945ZM206.001 15.5046C206.181 13.8856 206.846 12.5913 207.998 11.6172C209.15 10.6431 210.517 10.156 212.1 10.156C213.805 10.156 215.218 10.6295 216.338 11.5721C217.458 12.5146 218.124 13.8269 218.335 15.5046H206.005H206.001Z" fill="white"/>
<path d="M128.798 6.24609H123.953V29.5343H128.798V6.24609Z" fill="white"/>
<path d="M129.459 10.6972H136.89V6.24609H133.899C131.447 6.24609 129.459 8.23939 129.459 10.6972Z" fill="white"/>
<path d="M192.12 6.24609H187.275V29.5343H192.12V6.24609Z" fill="white"/>
<path d="M192.781 10.6972H200.212V6.24609H197.221C194.769 6.24609 192.781 8.23939 192.781 10.6972Z" fill="white"/>
<path d="M230.907 6.24609H226.062V29.5343H230.907V6.24609Z" fill="white"/>
<path d="M236.014 6.24609C233.562 6.24609 231.574 8.23939 231.574 10.6972H239.005V6.24609H236.014Z" fill="white"/>
<path d="M43.8712 33.8542C43.5024 33.2454 42.8456 32.8711 42.1349 32.8711H2.72593C2.01521 32.8711 1.35397 33.2454 0.989611 33.8542L0 35.5003H44.8609L43.8712 33.8542Z" fill="white"/>
<path d="M10.5484 27.6133C9.15392 29.3766 7.98438 30.3101 7.98438 30.3101H36.3997L35.7115 28.9527C35.2976 28.1319 34.4565 27.6133 33.5343 27.6133H10.5484Z" fill="white"/>
<path d="M13.6198 22.3867C13.2149 23.3698 12.7561 24.2718 12.2793 25.0835H33.7539L33.0701 23.7261C32.6563 22.9053 31.8106 22.3867 30.893 22.3867H13.6198Z" fill="white"/>
<path d="M14.988 17.1602C14.8755 18.1072 14.6956 19.0046 14.4707 19.857H31.1097L30.4214 18.4995C30.0076 17.6788 29.1664 17.1602 28.2443 17.1602H14.9835H14.988Z" fill="white"/>
<path d="M14.9297 11.9336C15.0601 12.8626 15.1231 13.76 15.1276 14.6304H28.4649L27.7766 13.273C27.3628 12.4522 26.5216 11.9336 25.5995 11.9336H14.9297Z" fill="white"/>
<path d="M25.131 8.05033C24.7171 7.22956 23.876 6.71094 22.9538 6.71094H11.6948C11.3034 6.71094 10.9301 6.84623 10.6287 7.09877L7.88477 9.40775H25.8147L25.1265 8.05033H25.131Z" fill="white"/>
<path d="M22.4869 2.82376C22.073 2.00299 21.2319 1.48438 20.3097 1.48438H17.9077C17.5163 1.48438 17.143 1.61967 16.8416 1.87221L14.0977 4.18119H23.1706L22.4824 2.82376H22.4869Z" fill="white"/>
<path d="M33.7097 3.87328V4.03563C32.0048 4.35582 30.6643 5.69972 30.345 7.4089H30.183C29.8637 5.69972 28.5232 4.35582 26.8184 4.03563V3.87328C28.5232 3.55309 29.8637 2.20919 30.183 0.5H30.345C30.6643 2.20919 32.0048 3.55309 33.7097 3.87328Z" fill="white"/>
<path d="M35.9548 8.79278V8.87846C35.0416 9.04983 34.3219 9.77139 34.151 10.6869H34.0655C33.8946 9.77139 33.1749 9.04983 32.2617 8.87846V8.79278C33.1749 8.62141 33.8946 7.89985 34.0655 6.98438H34.151C34.3219 7.89985 35.0416 8.62141 35.9548 8.79278Z" fill="white"/>
</g>
<defs>
<clipPath id="clip0_19612_129">
<rect width="239" height="35" fill="white" transform="translate(0 0.5)"/>
</clipPath>
</defs>
</svg>
