<svg width="45" height="36" viewBox="0 0 45 36" fill="none" xmlns="http://www.w3.org/2000/svg">
<path d="M43.8712 33.8542C43.5024 33.2454 42.8456 32.8711 42.1349 32.8711H2.72593C2.01521 32.8711 1.35397 33.2454 0.989611 33.8542L0 35.5003H44.8609L43.8712 33.8542Z" fill="white"/>
<path d="M10.5484 27.6133C9.15392 29.3766 7.98438 30.3101 7.98438 30.3101H36.3997L35.7115 28.9527C35.2976 28.1319 34.4565 27.6133 33.5343 27.6133H10.5484Z" fill="white"/>
<path d="M13.6198 22.3867C13.2149 23.3698 12.7561 24.2718 12.2793 25.0835H33.7539L33.0701 23.7261C32.6563 22.9053 31.8106 22.3867 30.893 22.3867H13.6198Z" fill="white"/>
<path d="M14.988 17.1602C14.8755 18.1072 14.6956 19.0046 14.4707 19.857H31.1097L30.4214 18.4995C30.0076 17.6788 29.1664 17.1602 28.2443 17.1602H14.9835H14.988Z" fill="white"/>
<path d="M14.9297 11.9336C15.0601 12.8626 15.1231 13.76 15.1276 14.6304H28.4649L27.7766 13.273C27.3628 12.4522 26.5216 11.9336 25.5995 11.9336H14.9297Z" fill="white"/>
<path d="M25.131 8.05033C24.7171 7.22956 23.876 6.71094 22.9538 6.71094H11.6948C11.3034 6.71094 10.9301 6.84623 10.6287 7.09877L7.88477 9.40775H25.8147L25.1265 8.05033H25.131Z" fill="white"/>
<path d="M22.4869 2.82376C22.073 2.00299 21.2319 1.48438 20.3097 1.48438H17.9077C17.5163 1.48438 17.143 1.61967 16.8416 1.87221L14.0977 4.18119H23.1706L22.4824 2.82376H22.4869Z" fill="white"/>
<path d="M33.7097 3.87328V4.03563C32.0048 4.35582 30.6643 5.69972 30.345 7.4089H30.183C29.8637 5.69972 28.5232 4.35582 26.8184 4.03563V3.87328C28.5232 3.55309 29.8637 2.20919 30.183 0.5H30.345C30.6643 2.20919 32.0048 3.55309 33.7097 3.87328Z" fill="white"/>
<path d="M35.9548 8.79278V8.87846C35.0416 9.04983 34.3219 9.77139 34.151 10.6869H34.0655C33.8946 9.77139 33.1749 9.04983 32.2617 8.87846V8.79278C33.1749 8.62141 33.8946 7.89985 34.0655 6.98438H34.151C34.3219 7.89985 35.0416 8.62141 35.9548 8.79278Z" fill="white"/>
</svg>
