<svg width="248" height="83" viewBox="0 0 248 83" fill="none" xmlns="http://www.w3.org/2000/svg">
<g clip-path="url(#clip0_4027_1430)">
<path d="M147.142 46.0261C147.142 40.1938 144.616 35.0664 136.069 35.0664C131.691 35.0664 128.211 36.2826 126.302 37.3606L127.691 42.0458C129.431 40.9678 132.196 40.0695 134.806 40.0695C139.143 40.0695 139.844 42.4881 139.844 44.036V44.4091C130.4 44.3953 124.436 47.6155 124.436 54.1803C124.436 58.1882 127.481 61.9474 132.757 61.9474C136.013 61.9474 138.722 60.6759 140.35 58.6305H140.518C140.518 58.6305 141.599 63.0669 147.535 61.3808C147.226 59.5288 147.128 57.5525 147.128 55.1892M140.097 52.1763C140.097 52.6462 140.055 53.1437 139.929 53.5721C139.381 55.355 137.501 56.8614 135.157 56.8614C133.206 56.8614 131.649 55.7696 131.649 53.4616C131.649 49.9235 135.606 48.9561 140.097 48.9699V52.1763Z" fill="white"/>
<path d="M0 27.1328C0 27.1328 6.17474 52.0375 7.15708 56.0731C8.30783 60.7859 10.3848 62.5273 16.349 61.3525L20.1942 45.915C21.1766 42.0728 21.8221 39.3502 22.4536 35.439H22.5659C23.0009 39.3778 23.6324 42.0867 24.4323 45.9288C24.4323 45.9288 26.0041 52.9358 26.804 56.6259C27.6039 60.3022 29.8493 62.624 35.7012 61.3664L44.8791 27.1328H37.4694L34.34 41.9346C33.498 46.2467 32.7402 49.6051 32.1367 53.5577H32.0385C31.5052 49.6603 30.8176 46.4263 29.9615 42.2249L26.6917 27.1466H18.9593L15.4649 41.8517C14.4685 46.3158 13.5564 49.9229 12.967 53.7374H12.8547C12.2512 50.1579 11.4513 45.6247 10.5813 41.2989C10.5813 41.2989 8.5043 30.7814 7.77456 27.1605" fill="white"/>
<path d="M65.9582 46.0261C65.9582 40.1938 63.4321 35.0664 54.8857 35.0664C50.4932 35.0664 47.0129 36.2826 45.1184 37.3606L46.5077 42.0458C48.2479 40.9678 51.0125 40.0695 53.6227 40.0695C57.9591 40.0695 58.6607 42.4881 58.6607 44.036V44.4091C49.2162 44.3953 43.252 47.6155 43.252 54.1803C43.252 58.1882 46.2972 61.9474 51.5738 61.9474C54.8296 61.9474 57.5381 60.6759 59.1659 58.6305H59.3203C59.3203 58.6305 60.4009 63.0669 66.3511 61.3808C66.0424 59.5288 65.9301 57.5525 65.9301 55.1892M58.9133 52.1763C58.9133 52.6462 58.8712 53.1437 58.7449 53.5721C58.1976 55.355 56.3312 56.8614 53.9876 56.8614C52.0369 56.8614 50.4792 55.7696 50.4792 53.4616C50.4792 49.9235 54.4226 48.9561 58.9274 48.9699V52.1763H58.9133Z" fill="white"/>
<path d="M77.7307 54.0967V27.1328H70.6719V61.3664H77.7307" fill="white"/>
<path d="M170.072 27.1349V52.3851C170.072 55.8679 170.732 58.3003 172.163 59.7929C173.398 61.0921 175.447 61.9351 177.903 61.9351C179.994 61.9351 182.043 61.5481 183.011 61.1888L182.913 55.7573C182.197 55.937 181.369 56.0752 180.233 56.0752C177.833 56.0752 177.019 54.5549 177.019 51.4315V41.7709H183.166V35.2199H177.019V27.1211" fill="white"/>
<path d="M151.857 35.6487V61.3688H159.141V48.1977C159.141 47.4929 159.183 46.871 159.295 46.3043C159.842 43.5402 161.976 41.785 165.049 41.785C165.891 41.785 166.494 41.8679 167.14 41.9647V35.2341C166.593 35.1235 166.228 35.082 165.54 35.082C162.818 35.082 159.73 36.8096 158.439 40.5135H158.243V35.6625" fill="white"/>
<path d="M82.6719 35.6451V61.3651H89.7728V46.2869C89.7728 45.5821 89.857 44.8357 90.1096 44.1862C90.699 42.6659 92.1305 40.8831 94.4179 40.8831C97.2807 40.8831 98.6139 43.2602 98.6139 46.7153V61.3651H105.701V46.1072C105.701 45.43 105.799 44.6146 105.996 44.0203C106.571 42.2928 108.129 40.8831 110.248 40.8831C113.153 40.8831 114.542 43.2326 114.542 47.2682V61.3513H121.629V46.204C121.629 38.2157 117.503 35.0508 112.858 35.0508C110.795 35.0508 109.167 35.5621 107.708 36.4467C106.473 37.193 105.364 38.2572 104.396 39.653H104.297C103.175 36.8751 100.537 35.0508 97.0983 35.0508C92.6778 35.0508 90.699 37.2482 89.4922 39.1278H89.3799V35.6312" fill="white"/>
<path d="M221.322 31.8602C222.725 31.8602 223.876 31.1415 224.03 30.2155L225.42 14.7779C225.42 13.2577 223.609 12 221.322 12C219.035 12 217.238 13.2577 217.238 14.7779L218.628 30.2155C218.782 31.1415 219.933 31.8602 221.336 31.8602" fill="white"/>
<path d="M212.859 36.6838C213.561 35.4952 213.505 34.1408 212.761 33.5465L199.878 24.646C198.545 23.8859 196.538 24.7981 195.387 26.7468C194.251 28.6955 194.447 30.8653 195.78 31.6254L210.038 38.1626C210.937 38.4942 212.143 37.8585 212.845 36.6699" fill="white"/>
<path d="M229.798 36.6816C230.5 37.8702 231.706 38.506 232.605 38.1743L246.863 31.6371C248.21 30.877 248.392 28.7072 247.256 26.7585C246.119 24.8098 244.112 23.8976 242.765 24.6578L229.882 33.5582C229.138 34.1525 229.096 35.5069 229.784 36.6955" fill="white"/>
<path d="M221.322 51.1406C222.725 51.1406 223.876 51.8593 224.03 52.7853L225.42 68.2228C225.42 69.7431 223.609 71.0008 221.322 71.0008C219.035 71.0008 217.238 69.7431 217.238 68.2228L218.628 52.7853C218.782 51.8593 219.933 51.1406 221.336 51.1406" fill="white"/>
<path d="M229.798 46.3312C230.5 45.1288 231.706 44.5069 232.605 44.8386L246.863 51.3757C248.21 52.1359 248.392 54.3057 247.256 56.2544C246.119 58.1893 244.112 59.1152 242.765 58.3551L229.882 49.4547C229.138 48.8604 229.096 47.506 229.784 46.3174" fill="white"/>
<path d="M212.859 46.3177C213.561 47.5063 213.505 48.8607 212.761 49.455L199.878 58.3416C198.545 59.1017 196.538 58.1896 195.387 56.2409C194.251 54.2922 194.447 52.1223 195.78 51.3484L210.038 44.8113C210.937 44.4796 212.143 45.1015 212.845 46.3039" fill="white"/>
</g>
<defs>
<clipPath id="clip0_4027_1430">
<rect width="248" height="59" fill="white" transform="translate(0 12)"/>
</clipPath>
</defs>
</svg>
