<svg width="248" height="83" viewBox="0 0 248 83" fill="none" xmlns="http://www.w3.org/2000/svg">
<g clip-path="url(#clip0_4027_1447)">
<path d="M34.0955 49.7637C38.7455 49.7637 42.5155 45.9938 42.5155 41.3438C42.5155 36.6937 38.7455 32.9237 34.0955 32.9237C29.4455 32.9237 25.6755 36.6937 25.6755 41.3438C25.6755 45.9938 29.4455 49.7637 34.0955 49.7637ZM34.0955 57.7137C43.0455 57.7137 50.3055 50.4537 50.3055 41.5037C50.3055 32.5538 43.0455 25.2937 34.0955 25.2937C25.1455 25.2937 17.8855 32.5437 17.8855 41.4937C17.8855 50.4437 25.1455 57.7038 34.0955 57.7038V57.7137ZM9.68555 41.4937C9.68555 28.0237 20.6155 17.0938 34.0955 17.0938C47.5755 17.0938 58.5055 28.0237 58.5055 41.4937C58.5055 54.9637 47.5755 65.9038 34.0955 65.9038C20.6155 65.9038 9.68555 54.9737 9.68555 41.4937Z" fill="white"/>
<path d="M66.4258 23.9844H94.2358V31.0044H84.6658V59.1244H76.1758V31.0544H66.4258V23.9844Z" fill="white"/>
<path d="M136.115 31.0544H128.315V38.0744C128.315 38.0744 134.395 38.0944 135.305 38.0744C137.745 38.0244 139.635 36.9344 139.635 34.5444C139.635 31.9444 138.035 31.0644 136.105 31.0644L136.115 31.0544ZM120.215 23.9844H136.715C146.095 23.9844 147.395 30.4044 147.395 34.1444C147.395 39.5744 142.715 42.3044 142.305 42.4144C142.305 42.4144 146.415 43.9444 146.415 48.6044V55.1544C146.415 57.7844 148.025 58.5044 148.315 59.1344H141.605C138.405 58.7744 138.465 56.2244 138.485 54.7644V49.1244C138.405 47.7444 137.995 46.2144 135.105 46.1644H128.325V59.1344H120.195L120.225 23.9944L120.215 23.9844Z" fill="white"/>
<path d="M183.266 23.9844V59.1244H208.576V51.8944H191.536V44.0444H206.086V37.3944H191.536V31.0544H208.576V23.9844H183.266Z" fill="white"/>
<path d="M209.775 31.0544H219.805V59.1244H228.125V31.0544H238.315V23.9844H209.775V31.0544Z" fill="white"/>
<path d="M103.016 36.3827L100.026 45.4527H106.186L103.016 36.3827ZM98.3063 23.9727H107.326L119.616 59.1127H110.876L108.336 51.8127H97.9662L95.5762 59.1127H86.9062L98.3162 23.9727H98.3063Z" fill="white"/>
<path d="M180.355 39.503H165.255V46.333H172.425C172.415 47.743 172.635 49.143 170.945 51.123C170.375 51.793 168.405 53.303 165.665 53.303C163.355 53.303 161.695 52.643 160.245 51.413C157.055 48.703 156.305 43.653 156.305 41.003C156.305 37.673 157.625 29.413 165.765 29.073C165.765 29.073 171.255 28.723 172.685 35.333H180.295C180.145 31.983 176.245 22.563 165.765 22.543C162.145 22.543 157.565 23.623 153.765 27.433C151.015 30.193 148.535 34.813 148.535 41.333C148.535 48.403 151.135 53.003 153.515 55.533C157.695 59.973 161.905 60.313 164.095 60.313C165.835 60.313 169.165 60.053 173.475 57.143L174.615 59.113H180.335V39.493L180.355 39.503Z" fill="white"/>
<path d="M231.986 56.8147H232.426C232.706 56.8147 232.916 56.7747 232.916 56.4747C232.916 56.2047 232.636 56.1647 232.406 56.1647H231.996V56.8147H231.986ZM231.486 55.7747H232.426C233.046 55.7747 233.396 55.9647 233.396 56.5047C233.396 56.9547 233.106 57.1347 232.746 57.1647L233.406 58.2447H232.896L232.296 57.1847H231.986V58.2447H231.496V55.7647L231.486 55.7747ZM232.376 58.7647C233.296 58.7647 234.046 58.0247 234.046 57.0147C234.046 56.0047 233.296 55.2847 232.376 55.2847C231.456 55.2847 230.706 56.0147 230.706 57.0147C230.706 58.0147 231.446 58.7647 232.376 58.7647ZM232.376 54.8047C233.576 54.8047 234.646 55.6747 234.646 57.0147C234.646 58.3547 233.576 59.2347 232.376 59.2347C231.176 59.2347 230.096 58.3647 230.096 57.0147C230.096 55.6647 231.166 54.8047 232.376 54.8047Z" fill="white"/>
</g>
<defs>
<clipPath id="clip0_4027_1447">
<rect width="228.63" height="48.81" fill="white" transform="translate(9.68555 17.0938)"/>
</clipPath>
</defs>
</svg>
