<svg width="248" height="83" viewBox="0 0 248 83" fill="none" xmlns="http://www.w3.org/2000/svg">
<path fill-rule="evenodd" clip-rule="evenodd" d="M55.4736 19.6367H7.93197C3.41376 19.6367 0 23.3015 0 27.8197V53.2221C0 53.3225 0.100404 53.3727 0.150607 53.3727H6.2753C6.3757 53.3727 6.4259 53.2723 6.4259 53.2221V27.4181H56.8793V53.2221C56.8793 53.3225 56.9797 53.3727 57.0299 53.3727H63.2048C63.3052 53.3727 63.3554 53.2723 63.3554 53.2221V27.8197C63.4558 23.3015 59.9918 19.6367 55.4736 19.6367Z" fill="white"/>
<path fill-rule="evenodd" clip-rule="evenodd" d="M154.071 48.6519H153.117C151.912 48.6519 151.26 47.9992 151.26 46.7442V36.7037C151.26 30.4786 147.896 27.4163 140.918 27.4163C137.052 27.3661 133.237 28.1693 129.773 29.7758C129.673 29.826 129.673 29.8762 129.673 29.9766L131.229 34.6956C131.229 34.7458 131.329 34.796 131.379 34.796H131.43C134.843 33.4406 137.856 32.7377 139.964 32.7377C142.374 32.7377 144.783 33.1896 144.783 36.4527V37.8584C144.783 37.8584 144.382 37.9086 136.701 38.511C128.97 39.1134 127.865 44.5353 127.865 46.694C127.865 51.0114 131.329 54.0737 136.249 54.0737C139.713 54.1239 143.026 52.9191 145.637 50.66C146.189 51.8648 147.846 53.8729 152.314 53.8729H154.121C154.221 53.8729 154.272 53.8227 154.272 53.7223V48.8527C154.221 48.7523 154.171 48.6519 154.071 48.6519ZM144.733 46.2924C141.872 48.3005 139.864 49.1539 137.755 49.1539C135.596 49.1539 134.141 48.0495 134.141 46.3426C134.141 45.6397 134.241 43.3806 137.303 43.0292C140.366 42.6276 144.733 42.0754 144.733 42.0754V46.2924Z" fill="white"/>
<path fill-rule="evenodd" clip-rule="evenodd" d="M171.442 27.4674C178.018 27.4674 183.139 33.3411 183.139 40.771C183.139 48.6026 178.32 54.0747 171.442 54.0747C168.731 54.0747 165.92 52.9702 163.66 51.1127V63.9645C163.66 64.0649 163.61 64.1151 163.51 64.1151H157.335C157.235 64.1151 157.184 64.0649 157.184 63.9645V28.2205C157.184 28.1201 157.235 28.0698 157.335 28.0698H163.51C163.61 28.0698 163.66 28.1201 163.66 28.2205V30.4796C166.02 28.4213 168.53 27.4674 171.442 27.4674ZM92.6241 33.4917C97.8452 34.5962 104.873 36.1022 104.873 44.0844C104.873 50.4601 99.803 54.1249 91.0176 54.1249C86.2986 54.0747 81.6298 52.8698 77.5132 50.5103L77.4128 50.4601C77.3626 50.4099 77.3124 50.3095 77.3626 50.2593L80.1739 45.2391C80.2241 45.1889 80.2743 45.1387 80.3245 45.1387H80.4249L80.5253 45.1889C84.1901 47.2472 87.6039 48.2512 91.0176 48.2512C94.2808 48.2512 98.046 47.4982 98.046 44.0844C98.046 40.9217 94.2306 40.1184 90.2646 39.265C83.9893 37.9597 78.1658 35.801 78.1658 28.8229C78.1658 22.7986 83.3869 18.8828 91.4193 18.8828C95.586 18.8828 99.4014 19.7363 103.518 21.5937L103.819 21.7444C103.869 21.7946 103.92 21.8448 103.92 21.895V21.9954L101.209 26.8148C101.159 26.9152 101.058 26.9152 101.008 26.865L100.757 26.7144C97.8954 25.3589 94.7828 24.6561 91.6201 24.6561C88.6079 24.6561 85.0436 25.3589 85.0436 28.7225C84.9431 31.835 88.8589 32.6885 92.6241 33.4917ZM109.994 28.1201V21.7946C109.994 21.6941 110.044 21.6439 110.145 21.6439H116.32C116.42 21.6439 116.47 21.6941 116.47 21.7946V28.1201H124.904C125.005 28.1201 125.055 28.1703 125.055 28.2707V33.1403C125.055 33.2407 125.005 33.2909 124.904 33.2909H116.47V45.2893C116.47 47.2472 118.026 48.5524 120.386 48.5524C122.444 48.5524 123.398 48.3014 124.804 47.7492L125.155 47.5986H125.205C125.256 47.5986 125.356 47.6488 125.356 47.699L126.812 52.167C126.862 52.2674 126.812 52.3176 126.712 52.3678L126.31 52.5184C124.302 53.3718 122.344 54.0245 119.031 54.0245C113.358 54.0245 109.944 51.0123 109.944 45.8917V33.2407H104.924C104.823 33.2407 104.773 33.1905 104.773 33.0901V28.2205C104.773 28.1201 104.823 28.0698 104.924 28.0698L109.994 28.1201ZM237.759 38.0601C242.93 38.9638 248 40.3694 248 46.0925C248 51.3637 244.185 54.0245 236.604 54.0245C232.739 54.0245 228.723 52.9702 224.958 51.0625L224.807 50.9621C224.757 50.9119 224.707 50.8617 224.707 50.8115V50.7111L227.116 46.4941C227.166 46.4439 227.267 46.3937 227.317 46.4439L227.468 46.4941C229.777 47.699 233.191 49.1548 236.604 49.1548C240.269 49.1548 241.976 48.3014 241.976 46.4941C241.976 44.5362 240.169 43.9338 235.751 43.1808C230.731 42.3273 225.409 40.9719 225.409 35.1986C225.409 30.1281 229.375 27.367 236.604 27.367C241.323 27.367 244.135 28.4715 247.047 29.8269L247.247 29.9273C247.298 29.9775 247.348 30.0277 247.348 30.0779V30.1783L244.938 34.3451C244.888 34.3953 244.787 34.4455 244.737 34.3953L244.587 34.2949C242.177 32.9395 239.416 32.2366 236.655 32.2366C232.136 32.2366 231.584 33.7929 231.584 34.9476C231.534 36.9557 233.592 37.3573 237.759 38.0601ZM192.979 19.6358C193.079 19.6358 193.129 19.6861 193.129 19.7865V53.2714C193.129 53.3718 193.079 53.422 192.979 53.422H186.804C186.703 53.422 186.653 53.3718 186.653 53.2714V19.7865C186.653 19.6861 186.703 19.6358 186.804 19.6358H192.979ZM169.835 48.5524C173.902 48.5524 176.663 45.4399 176.663 40.771C176.663 36.052 174.002 32.9897 169.835 32.9897C167.626 32.9897 165.719 33.9937 163.66 36.2026V45.1387C165.669 47.4982 167.576 48.5524 169.835 48.5524Z" fill="white"/>
<path fill-rule="evenodd" clip-rule="evenodd" d="M219.485 46.5451C219.435 46.4447 219.335 46.4447 219.285 46.4949L219.084 46.5953C216.975 47.6997 215.068 48.8042 211.102 48.8042C206.784 48.8042 203.873 46.3945 203.27 42.3783H221.544C221.644 42.3783 221.694 42.3281 221.694 42.2277V40.4706C221.694 32.4382 216.875 27.418 209.144 27.418C201.714 27.418 196.543 32.9904 196.543 40.9224C196.543 48.754 202.166 54.0252 210.499 54.0252C214.465 54.0754 218.331 53.0212 221.745 50.9629L221.845 50.9127C221.895 50.8625 221.945 50.7621 221.895 50.7119L219.485 46.5451ZM209.194 32.6892C212.558 32.6892 214.666 34.4463 215.218 37.7597H203.27C203.822 34.4965 205.931 32.6892 209.194 32.6892Z" fill="white"/>
</svg>
