<svg width="248" height="83" viewBox="0 0 248 83" fill="none" xmlns="http://www.w3.org/2000/svg">
<path d="M92.5531 54.6055L93.0527 62.3628H93.183C93.4437 61.5743 93.726 60.7432 94.1387 59.976L96.8538 54.6268H101.285L101.958 62.3842H102.088C102.327 61.6169 102.588 60.8284 102.935 60.0825L105.585 54.6268H111.58L103.457 67.6055H98.4176L97.9832 60.5514H97.7877C97.5922 61.2333 97.4185 61.8727 97.1144 62.512L94.5297 67.6055H89.6209L86.5801 54.6268H92.5531V54.6055Z" fill="white"/>
<path d="M111.073 54.6055H116.575L115.737 58.9815H119.24L120.078 54.6055H125.58L123.087 67.6055H117.585L118.445 63.08H114.942L114.082 67.6055H108.58L111.073 54.6055Z" fill="white"/>
<path d="M142.052 61.6389C141.258 66.0013 136.881 68.6055 132.097 68.6055C127.312 68.6055 123.901 66.0013 124.695 61.6389C125.467 57.3654 129.887 54.6055 134.671 54.6055C139.413 54.6055 142.824 57.3877 142.052 61.6389ZM130.423 61.7279C130.144 63.2637 131.153 64.332 132.869 64.332C134.607 64.332 136.001 63.2637 136.28 61.7279C136.538 60.2811 135.637 59.0792 133.835 59.0792C132.032 59.0792 130.681 60.2811 130.423 61.7279ZM143.296 54.828H149.003L147.308 64.0427H152.092L151.298 68.4052H140.807L143.296 54.828ZM165.587 63.5307L165.845 63.7311C166.746 64.4211 167.861 64.9775 169.17 64.9775C169.728 64.9775 170.672 64.7772 170.779 64.1762C170.886 63.5753 170.157 63.5085 169.642 63.4195L168.526 63.2414C166.359 62.9075 164.707 61.7724 165.094 59.6357C165.694 56.4083 169.406 54.6055 172.817 54.6055C174.598 54.6055 176.186 54.9838 177.58 55.7851L175.413 59.2573C174.534 58.6786 173.525 58.2334 172.281 58.2334C171.787 58.2334 171.015 58.3893 170.929 58.9457C170.843 59.4576 171.53 59.5244 171.959 59.6134L173.203 59.8582C175.52 60.3257 177.065 61.4385 176.658 63.7533C176.057 67.0029 172.367 68.5832 168.955 68.5832C166.982 68.5832 164.772 68.1158 163.141 67.3368L165.587 63.5307Z" fill="white"/>
<path d="M185.972 62.8879L185.727 60.5825C185.66 60.0275 185.66 59.4511 185.66 58.9175H185.438L183.569 62.8879H185.972ZM180.832 67.6055H174.58L182.812 54.6055H189.354L192.58 67.6055H186.328L186.105 65.9831H181.633L180.832 67.6055Z" fill="white"/>
<path d="M194.111 54.6055H199.913L198.19 63.4284H203.055L202.248 67.6055H191.58L194.111 54.6055ZM205.847 54.6055H216.58L215.882 58.1645H210.995L210.755 59.4006H215.228L214.573 62.7678H210.101L209.861 64.0464H214.922L214.224 67.5841H203.317L205.847 54.6055Z" fill="white"/>
<path d="M127.811 31.1897L135.077 30.9091L128.979 50.9373H141.998L148.075 30.9091L155.169 31.1897L158.067 21.672H130.709L127.811 31.1897ZM100.842 36.391C99.0257 45.7792 89.0341 51.4121 78.1126 51.4121C67.1911 51.4121 59.3838 45.7792 61.2004 36.391C62.9738 27.197 73.0735 21.2188 83.9518 21.2188C94.8517 21.2188 102.637 27.197 100.842 36.391ZM74.3063 36.542C73.6575 39.8873 75.9715 42.175 79.9076 42.175C83.8437 42.175 87.0444 39.8873 87.6932 36.542C88.2988 33.4342 86.2226 30.8444 82.0919 30.8444C77.9828 30.8444 74.9118 33.4342 74.3063 36.542Z" fill="white"/>
<path d="M96.7968 48.7355C100.517 50.3974 105.556 51.4117 110.054 51.4117C117.796 51.4117 126.274 47.9586 127.615 40.966C128.588 36.0021 125.063 33.5849 119.743 32.5921L116.91 32.0526C115.958 31.8583 114.358 31.7073 114.574 30.6066C114.812 29.398 116.542 29.0527 117.688 29.0527C120.5 29.0527 122.814 30.0239 124.825 31.2756L129.799 23.7866C126.62 22.0385 123.03 21.2184 118.943 21.2184C111.157 21.2184 102.658 25.1032 101.295 32.0526C100.408 36.628 104.215 39.0668 109.146 39.8221L111.676 40.2106C112.822 40.4048 114.509 40.5128 114.25 41.8508C113.99 43.1674 111.871 43.599 110.573 43.599C107.589 43.599 105.015 42.3904 102.96 40.9228L102.376 40.4912L96.7968 48.7355ZM183.434 22.4054C180.838 21.6284 177.876 21.1968 174.913 21.1968C164.402 21.1968 154.865 28.0167 153.199 36.5632C151.577 44.9155 158.303 51.3901 168.533 51.3901C170.868 51.3901 175.778 51.0448 178.027 50.2247L180.536 39.2826C178.113 40.9444 175.54 42.0019 172.555 42.0019C168.663 42.0019 165.765 39.52 166.392 36.3043C167.019 33.1317 170.674 30.6066 174.588 30.6066C177.53 30.6066 179.887 31.9663 181.66 33.5633L183.434 22.4054ZM204.282 21.2184C193.404 21.2184 183.304 27.1966 181.53 36.3906C179.714 45.7788 187.499 51.4117 198.443 51.4117C209.364 51.4117 219.356 45.7788 221.172 36.3906C222.924 27.1966 215.16 21.2184 204.282 21.2184ZM202.4 30.844C206.531 30.844 208.607 33.4338 208.002 36.5417C207.353 39.8869 204.152 42.1746 200.216 42.1746C196.28 42.1746 193.966 39.8869 194.615 36.5417C195.199 33.4338 198.27 30.844 202.4 30.844ZM64.5729 15.8444C61.3289 14.9164 57.6307 14.3984 53.9542 14.3984C40.8483 14.3984 28.9536 22.6644 26.8775 32.9806C24.8662 43.0594 33.2573 50.8937 45.9955 50.8937C48.8935 50.8937 55.0355 50.4621 57.8254 49.4909L60.9396 36.2611C57.9335 38.2682 54.7111 39.5416 50.9697 39.5416C46.1036 39.5416 42.492 36.5417 43.2705 32.6353C44.0491 28.7937 48.6124 25.729 53.4784 25.729C57.1549 25.729 60.0745 27.3693 62.3021 29.2901L64.5729 15.8444Z" fill="white"/>
<path d="M213.148 49.5103C213.342 48.4959 214.488 47.6758 215.721 47.6758C216.954 47.6758 217.797 48.4959 217.603 49.5103C217.408 50.5462 216.262 51.3663 215.029 51.3663C213.775 51.3663 212.953 50.5462 213.148 49.5103ZM217.019 49.5103C217.17 48.6901 216.586 48.1506 215.635 48.1506C214.662 48.1506 213.883 48.6901 213.732 49.5103C213.58 50.3304 214.142 50.8699 215.116 50.8699C216.046 50.8915 216.846 50.3304 217.019 49.5103ZM216.219 50.4815H215.635L215.267 49.6613H214.899L214.748 50.4815H214.251L214.618 48.5391H215.743C216.24 48.5391 216.5 48.6686 216.413 49.1218C216.348 49.4455 216.089 49.6182 215.786 49.6398L216.219 50.4815ZM215.505 49.2944C215.743 49.2944 215.959 49.2944 216.002 49.0786C216.024 48.906 215.829 48.906 215.57 48.906H215.051L214.986 49.2729L215.505 49.2944Z" fill="white"/>
<path d="M27.5801 67.6055H88.5337V67.5842H88.4904L87.7117 64.2863H27.5801V67.6055ZM27.5801 62.8821H87.3873L86.6086 59.5629H27.5801V62.8821ZM27.5801 58.1587H86.2625L86.003 56.9459L85.4622 54.648H27.5801V58.1587ZM154.938 54.6055H165.58L164.888 58.1587H160.043L159.805 59.3927H164.239L163.59 62.7544H159.156L158.918 64.031H163.936L163.244 67.5629H152.429L154.938 54.6055Z" fill="white"/>
</svg>
